<svg width="16" height="17" viewBox="0 0 16 17" fill="none" xmlns="http://www.w3.org/2000/svg">
<path fill-rule="evenodd" clip-rule="evenodd" d="M13.2 7.17778V4.91111C13.2 3.6086 12.6521 2.35944 11.677 1.43843C10.7018 0.51742 9.37912 0 8 0C6.62088 0 5.29824 0.51742 4.32304 1.43843C3.34784 2.35944 2.8 3.6086 2.8 4.91111V7.17778H2.4C1.07448 7.17778 0 8.19256 0 9.44444V14.7333C0 15.9852 1.07448 17 2.4 17H13.6C14.9255 17 16 15.9852 16 14.7333V9.44444C16 8.19256 14.9255 7.17778 13.6 7.17778H13.2ZM9.9799 3.04121C9.4548 2.54528 8.74264 2.26667 8 2.26667C7.25736 2.26667 6.5452 2.54528 6.02008 3.04121C5.49496 3.53713 5.2 4.20976 5.2 4.91111V7.17778H10.8V4.91111C10.8 4.20976 10.505 3.53713 9.9799 3.04121Z" fill="white"/>
</svg>
