<svg width="23" height="26" viewBox="0 0 23 26" fill="none" xmlns="http://www.w3.org/2000/svg">
<rect x="0.591797" y="3.18945" width="22" height="21" rx="3" fill="url(#paint0_linear_544_295)"/>
<path d="M6.7175 20.1895V7.18945H11.5975C12.5308 7.18945 13.3908 7.32279 14.1775 7.58945C14.9642 7.85612 15.5975 8.30279 16.0775 8.92945C16.5575 9.55612 16.7975 10.4161 16.7975 11.5095C16.7975 12.5628 16.5508 13.4295 16.0575 14.1095C15.5775 14.7761 14.9375 15.2695 14.1375 15.5895C13.3508 15.9095 12.5042 16.0695 11.5975 16.0695H10.1575V20.1895H6.7175ZM10.1575 13.3495H11.4375C12.1175 13.3495 12.6175 13.1895 12.9375 12.8695C13.2708 12.5361 13.4375 12.0828 13.4375 11.5095C13.4375 10.9228 13.2642 10.5095 12.9175 10.2695C12.5708 10.0295 12.0775 9.90945 11.4375 9.90945H10.1575V13.3495Z" fill="#131313"/>
<defs>
<linearGradient id="paint0_linear_544_295" x1="11.5918" y1="3.18945" x2="11.5918" y2="24.1895" gradientUnits="userSpaceOnUse">
<stop stop-color="#D1992D"/>
<stop offset="1" stop-color="#644A18"/>
</linearGradient>
</defs>
</svg>
