<svg width="23" height="26" viewBox="0 0 23 26" fill="none" xmlns="http://www.w3.org/2000/svg">
<rect x="0.591797" y="3.56641" width="22" height="21" rx="3" fill="url(#paint0_linear_544_338)"/>
<path d="M11.6318 20.8064C10.7785 20.8064 10.0451 20.6864 9.4318 20.4464C8.81846 20.1931 8.3118 19.8397 7.9118 19.3864C7.52513 18.9197 7.2318 18.3664 7.0318 17.7264C6.84513 17.0731 6.7518 16.3397 6.7518 15.5264V7.56641H10.1918V15.9264C10.1918 16.2997 10.2318 16.6331 10.3118 16.9264C10.4051 17.2064 10.5585 17.4331 10.7718 17.6064C10.9851 17.7664 11.2718 17.8464 11.6318 17.8464C12.0051 17.8464 12.2985 17.7664 12.5118 17.6064C12.7251 17.4331 12.8785 17.2064 12.9718 16.9264C13.0651 16.6331 13.1118 16.2997 13.1118 15.9264V7.56641H16.4318V15.5264C16.4318 16.3397 16.3385 17.0731 16.1518 17.7264C15.9785 18.3664 15.6985 18.9197 15.3118 19.3864C14.9251 19.8397 14.4251 20.1931 13.8118 20.4464C13.2118 20.6864 12.4851 20.8064 11.6318 20.8064Z" fill="#131313"/>
<defs>
<linearGradient id="paint0_linear_544_338" x1="11.5918" y1="3.56641" x2="11.5918" y2="24.5664" gradientUnits="userSpaceOnUse">
<stop stop-color="#3CF3FF"/>
<stop offset="1" stop-color="#006BA7"/>
</linearGradient>
</defs>
</svg>
