<svg width="731" height="123" viewBox="0 0 731 123" fill="none" xmlns="http://www.w3.org/2000/svg">
<path d="M8.314 95.9223V86.5143H23.482V42.5463H8.314V33.1383H49.786V42.5463H34.618V86.5143H49.786V95.9223H8.314ZM62.2285 95.9223V48.7863H70.7725L71.6365 54.7383H71.9245C72.9485 52.6903 74.2605 50.9943 75.8605 49.6503C77.4605 48.3063 79.6365 47.6343 82.3885 47.6343C84.5645 47.6343 86.3885 48.3063 87.8605 49.6503C89.3325 50.9303 90.3565 52.8823 90.9325 55.5063C92.0205 53.2023 93.3965 51.3143 95.0605 49.8423C96.7245 48.3703 98.9325 47.6343 101.685 47.6343C105.013 47.6343 107.573 48.9463 109.365 51.5703C111.221 54.1303 112.149 57.7783 112.149 62.5143V95.9223H101.493V63.2823C101.493 59.1223 100.245 57.0423 97.7485 57.0423C96.4685 57.0423 95.3805 57.5223 94.4845 58.4823C93.6525 59.4423 92.7565 60.9463 91.7965 62.9943V95.9223H82.5805V63.2823C82.5805 61.2343 82.2925 59.6983 81.7165 58.6743C81.1405 57.5863 80.1805 57.0423 78.8365 57.0423C77.6205 57.0423 76.5645 57.5223 75.6685 58.4823C74.7725 59.4423 73.8765 60.9463 72.9805 62.9943V95.9223H62.2285ZM123.247 114.546V48.7863H132.367L133.231 54.1623H133.519C135.567 52.2423 137.903 50.6743 140.527 49.4583C143.215 48.2423 145.903 47.6343 148.591 47.6343C152.751 47.6343 156.239 48.6263 159.055 50.6103C161.871 52.5943 164.047 55.3783 165.583 58.9623C167.119 62.5463 167.887 66.7703 167.887 71.6343C167.887 77.0103 166.895 81.5863 164.911 85.3623C162.927 89.1383 160.335 92.0503 157.135 94.0983C153.999 96.0823 150.607 97.0743 146.959 97.0743C144.847 97.0743 142.639 96.5943 140.335 95.6343C138.095 94.6743 136.015 93.2983 134.095 91.5063H133.807L134.383 99.7623V114.546H123.247ZM144.655 87.9543C146.895 87.9543 148.911 87.3463 150.703 86.1303C152.495 84.9143 153.903 83.1223 154.927 80.7543C155.951 78.3223 156.463 75.3143 156.463 71.7303C156.463 68.5943 156.079 65.9063 155.311 63.6663C154.543 61.4263 153.359 59.7303 151.759 58.5783C150.223 57.3623 148.143 56.7543 145.519 56.7543C143.727 56.7543 141.903 57.2023 140.047 58.0983C138.191 58.9943 136.303 60.4343 134.383 62.4183V83.6343C136.111 85.1703 137.903 86.2903 139.759 86.9943C141.615 87.6343 143.247 87.9543 144.655 87.9543ZM204.618 97.0743C199.818 97.0743 195.466 96.1143 191.562 94.1943C187.658 92.2103 184.554 89.3943 182.25 85.7463C179.946 82.0343 178.794 77.5543 178.794 72.3063C178.794 67.1863 179.946 62.8023 182.25 59.1543C184.554 55.4423 187.562 52.5943 191.274 50.6103C194.986 48.6263 198.954 47.6343 203.178 47.6343C207.85 47.6343 211.786 48.5943 214.986 50.5143C218.25 52.4343 220.714 55.0903 222.378 58.4823C224.106 61.8103 224.97 65.6503 224.97 70.0023C224.97 71.0903 224.906 72.1463 224.778 73.1703C224.714 74.1303 224.618 74.9303 224.49 75.5703H186.762V67.6983H217.386L215.274 70.1943C215.274 65.5223 214.218 62.0343 212.106 59.7303C210.058 57.3623 207.178 56.1783 203.466 56.1783C200.842 56.1783 198.474 56.7863 196.362 58.0023C194.314 59.2183 192.682 61.0423 191.466 63.4743C190.25 65.8423 189.642 68.7863 189.642 72.3063C189.642 75.9543 190.314 78.9623 191.658 81.3303C193.066 83.6983 194.986 85.4903 197.418 86.7063C199.914 87.9223 202.794 88.5303 206.058 88.5303C208.554 88.5303 210.858 88.1783 212.97 87.4743C215.082 86.7703 217.194 85.8103 219.306 84.5943L223.05 91.5063C220.554 93.1063 217.738 94.4503 214.602 95.5383C211.466 96.5623 208.138 97.0743 204.618 97.0743ZM242.98 95.9223V48.7863H252.1L253.06 59.4423H253.348C255.716 55.6023 258.628 52.6903 262.084 50.7063C265.604 48.6583 269.38 47.6343 273.412 47.6343C275.332 47.6343 276.996 47.7943 278.404 48.1143C279.812 48.4343 281.188 48.9143 282.532 49.5543L280.228 58.8663C278.692 58.3543 277.316 58.0023 276.1 57.8103C274.948 57.5543 273.476 57.4263 271.684 57.4263C268.484 57.4263 265.348 58.3543 262.276 60.2103C259.268 62.0663 256.548 65.2983 254.116 69.9063V95.9223H242.98ZM316.575 95.9223V57.5223H296.127V48.7863H327.615V95.9223H316.575ZM321.279 40.1463C319.039 40.1463 317.151 39.4743 315.615 38.1303C314.142 36.7863 313.406 34.9943 313.406 32.7543C313.406 30.5143 314.142 28.7223 315.615 27.3783C317.151 25.9703 319.039 25.2663 321.279 25.2663C323.583 25.2663 325.471 25.9703 326.943 27.3783C328.415 28.7223 329.151 30.5143 329.151 32.7543C329.151 34.9943 328.415 36.7863 326.943 38.1303C325.471 39.4743 323.583 40.1463 321.279 40.1463ZM368.185 97.0743C365.113 97.0743 362.393 96.4983 360.025 95.3463C357.657 94.1303 355.801 92.4983 354.457 90.4503C353.113 88.4023 352.441 86.0023 352.441 83.2503C352.441 78.0023 354.937 74.0023 359.929 71.2503C364.985 68.4343 373.337 66.6103 384.985 65.7783C384.857 64.0503 384.377 62.4823 383.545 61.0743C382.777 59.6663 381.593 58.5783 379.993 57.8103C378.393 56.9783 376.313 56.5623 373.753 56.5623C371.961 56.5623 370.201 56.7863 368.473 57.2343C366.745 57.6823 365.017 58.2903 363.289 59.0583C361.625 59.8263 359.961 60.6583 358.297 61.5543L354.265 54.1623C356.185 53.0103 358.297 51.9543 360.601 50.9943C362.905 49.9703 365.337 49.1703 367.897 48.5943C370.457 47.9543 373.081 47.6343 375.769 47.6343C380.185 47.6343 383.865 48.4343 386.809 50.0343C389.817 51.5703 392.089 53.8743 393.625 56.9463C395.225 59.9543 396.025 63.6343 396.025 67.9863V95.9223H387.001L386.137 90.0663H385.849C383.353 91.9863 380.569 93.6503 377.497 95.0583C374.489 96.4023 371.385 97.0743 368.185 97.0743ZM371.545 88.4343C373.913 88.4343 376.185 87.9223 378.361 86.8983C380.601 85.8103 382.809 84.4023 384.985 82.6743V72.6903C379.353 73.0743 374.937 73.7143 371.737 74.6103C368.537 75.4423 366.297 76.5303 365.017 77.8743C363.737 79.2183 363.097 80.7223 363.097 82.3863C363.097 83.7943 363.481 84.9463 364.249 85.8423C365.017 86.7383 366.009 87.4103 367.225 87.8583C368.505 88.2423 369.945 88.4343 371.545 88.4343ZM441.588 97.0743C436.148 97.0743 431.988 95.4743 429.108 92.2743C426.292 89.0103 424.884 84.4983 424.884 78.7383V36.8823H409.523V28.1463H435.924V79.3143C435.924 82.5143 436.724 84.7863 438.324 86.1303C439.988 87.4103 442.004 88.0503 444.372 88.0503C445.588 88.0503 446.836 87.9223 448.116 87.6663C449.396 87.3463 450.836 86.8663 452.436 86.2263L455.028 94.3863C452.788 95.1543 450.676 95.7943 448.692 96.3063C446.772 96.8183 444.404 97.0743 441.588 97.0743Z" fill="url(#paint0_linear_3_120)"/>
<rect x="493" y="13.1982" width="238" height="97.4635" rx="10" fill="url(#paint1_linear_3_120)"/>
<path d="M503.448 95V32.216H524.088C528.696 32.216 532.792 32.824 536.376 34.04C539.96 35.256 542.776 37.272 544.824 40.088C546.936 42.904 547.992 46.744 547.992 51.608C547.992 56.216 546.936 60.024 544.824 63.032C542.776 66.04 539.928 68.28 536.28 69.752C532.696 71.224 528.632 71.96 524.088 71.96H514.584V95H503.448ZM514.584 63.032H523.224C527.896 63.032 531.352 62.072 533.592 60.152C535.896 58.232 537.048 55.384 537.048 51.608C537.048 47.64 535.864 44.92 533.496 43.448C531.192 41.912 527.768 41.144 523.224 41.144H514.584V63.032ZM575.123 96.152C572.051 96.152 569.331 95.576 566.963 94.424C564.595 93.208 562.739 91.576 561.395 89.528C560.051 87.48 559.379 85.08 559.379 82.328C559.379 77.08 561.875 73.08 566.867 70.328C571.923 67.512 580.275 65.688 591.923 64.856C591.795 63.128 591.315 61.56 590.483 60.152C589.715 58.744 588.531 57.656 586.931 56.888C585.331 56.056 583.251 55.64 580.691 55.64C578.899 55.64 577.139 55.864 575.411 56.312C573.683 56.76 571.955 57.368 570.227 58.136C568.563 58.904 566.899 59.736 565.234 60.632L561.203 53.24C563.123 52.088 565.235 51.032 567.539 50.072C569.843 49.048 572.275 48.248 574.835 47.672C577.395 47.032 580.019 46.712 582.707 46.712C587.123 46.712 590.803 47.512 593.747 49.112C596.755 50.648 599.027 52.952 600.562 56.024C602.163 59.032 602.963 62.712 602.963 67.064V95H593.939L593.075 89.144H592.787C590.291 91.064 587.507 92.728 584.435 94.136C581.427 95.48 578.323 96.152 575.123 96.152ZM578.483 87.512C580.851 87.512 583.123 87 585.299 85.976C587.539 84.888 589.747 83.48 591.923 81.752V71.768C586.291 72.152 581.875 72.792 578.675 73.688C575.475 74.52 573.235 75.608 571.955 76.952C570.675 78.296 570.035 79.8 570.035 81.464C570.035 82.872 570.419 84.024 571.187 84.92C571.955 85.816 572.947 86.488 574.163 86.936C575.443 87.32 576.883 87.512 578.483 87.512ZM639.213 96.152C634.797 96.152 630.573 95.448 626.541 94.04C622.509 92.568 619.021 90.84 616.077 88.856L620.877 81.848C623.693 83.704 626.733 85.176 629.997 86.264C633.261 87.288 636.813 87.8 640.653 87.8C643.917 87.8 646.317 87.256 647.853 86.168C649.453 85.016 650.253 83.672 650.253 82.136C650.253 81.368 650.061 80.664 649.677 80.024C649.357 79.384 648.749 78.808 647.853 78.296C646.957 77.72 645.645 77.176 643.917 76.664C642.189 76.152 639.949 75.608 637.197 75.032C630.925 73.688 626.317 71.864 623.373 69.56C620.429 67.256 618.957 64.344 618.957 60.824C618.957 56.664 620.749 53.272 624.333 50.648C627.981 48.024 633.101 46.712 639.693 46.712C643.597 46.712 647.245 47.352 650.637 48.632C654.093 49.912 657.005 51.352 659.373 52.952L654.285 59.768C652.045 58.232 649.581 57.08 646.893 56.312C644.205 55.48 641.485 55.064 638.733 55.064C636.621 55.064 634.925 55.288 633.645 55.736C632.429 56.184 631.501 56.824 630.861 57.656C630.285 58.424 629.997 59.288 629.997 60.248C629.997 61.912 630.957 63.16 632.877 63.992C634.797 64.824 637.933 65.72 642.285 66.68C647.341 67.768 651.245 69.016 653.997 70.424C656.749 71.768 658.637 73.336 659.661 75.128C660.749 76.856 661.293 79 661.293 81.56C661.293 84.248 660.429 86.712 658.701 88.952C657.037 91.128 654.573 92.888 651.309 94.232C648.045 95.512 644.013 96.152 639.213 96.152ZM696.776 96.152C692.36 96.152 688.136 95.448 684.104 94.04C680.072 92.568 676.584 90.84 673.64 88.856L678.44 81.848C681.256 83.704 684.296 85.176 687.56 86.264C690.824 87.288 694.376 87.8 698.216 87.8C701.48 87.8 703.88 87.256 705.416 86.168C707.016 85.016 707.816 83.672 707.816 82.136C707.816 81.368 707.624 80.664 707.24 80.024C706.92 79.384 706.312 78.808 705.416 78.296C704.52 77.72 703.208 77.176 701.48 76.664C699.752 76.152 697.512 75.608 694.76 75.032C688.488 73.688 683.88 71.864 680.936 69.56C677.992 67.256 676.52 64.344 676.52 60.824C676.52 56.664 678.312 53.272 681.896 50.648C685.544 48.024 690.664 46.712 697.256 46.712C701.16 46.712 704.808 47.352 708.2 48.632C711.656 49.912 714.568 51.352 716.936 52.952L711.848 59.768C709.608 58.232 707.144 57.08 704.456 56.312C701.768 55.48 699.048 55.064 696.296 55.064C694.184 55.064 692.488 55.288 691.208 55.736C689.992 56.184 689.064 56.824 688.424 57.656C687.848 58.424 687.56 59.288 687.56 60.248C687.56 61.912 688.52 63.16 690.44 63.992C692.36 64.824 695.496 65.72 699.848 66.68C704.904 67.768 708.808 69.016 711.56 70.424C714.312 71.768 716.2 73.336 717.224 75.128C718.312 76.856 718.856 79 718.856 81.56C718.856 84.248 717.992 86.712 716.264 88.952C714.6 91.128 712.136 92.888 708.872 94.232C705.608 95.512 701.576 96.152 696.776 96.152Z" fill="#131313"/>
<defs>
<linearGradient id="paint0_linear_3_120" x1="230.5" y1="0.922302" x2="230.5" y2="121.922" gradientUnits="userSpaceOnUse">
<stop stop-color="#D1992C"/>
<stop offset="1" stop-color="#D1992C" stop-opacity="0.31"/>
</linearGradient>
<linearGradient id="paint1_linear_3_120" x1="612" y1="13.1982" x2="612" y2="110.662" gradientUnits="userSpaceOnUse">
<stop stop-color="#D1992C"/>
<stop offset="1" stop-color="#644A17"/>
</linearGradient>
</defs>
</svg>
