<svg width="790" height="123" viewBox="0 0 790 123" fill="none" xmlns="http://www.w3.org/2000/svg">
<path d="M8.314 96V86.592H23.482V42.624H8.314V33.216H49.786V42.624H34.618V86.592H49.786V96H8.314ZM62.2285 96V48.864H70.7725L71.6365 54.816H71.9245C72.9485 52.768 74.2605 51.072 75.8605 49.728C77.4605 48.384 79.6365 47.712 82.3885 47.712C84.5645 47.712 86.3885 48.384 87.8605 49.728C89.3325 51.008 90.3565 52.96 90.9325 55.584C92.0205 53.28 93.3965 51.392 95.0605 49.92C96.7245 48.448 98.9325 47.712 101.685 47.712C105.013 47.712 107.573 49.024 109.365 51.648C111.221 54.208 112.149 57.856 112.149 62.592V96H101.493V63.36C101.493 59.2 100.245 57.12 97.7485 57.12C96.4685 57.12 95.3805 57.6 94.4845 58.56C93.6525 59.52 92.7565 61.024 91.7965 63.072V96H82.5805V63.36C82.5805 61.312 82.2925 59.776 81.7165 58.752C81.1405 57.664 80.1805 57.12 78.8365 57.12C77.6205 57.12 76.5645 57.6 75.6685 58.56C74.7725 59.52 73.8765 61.024 72.9805 63.072V96H62.2285ZM123.247 114.624V48.864H132.367L133.231 54.24H133.519C135.567 52.32 137.903 50.752 140.527 49.536C143.215 48.32 145.903 47.712 148.591 47.712C152.751 47.712 156.239 48.704 159.055 50.688C161.871 52.672 164.047 55.456 165.583 59.04C167.119 62.624 167.887 66.848 167.887 71.712C167.887 77.088 166.895 81.664 164.911 85.44C162.927 89.216 160.335 92.128 157.135 94.176C153.999 96.16 150.607 97.152 146.959 97.152C144.847 97.152 142.639 96.672 140.335 95.712C138.095 94.752 136.015 93.376 134.095 91.584H133.807L134.383 99.84V114.624H123.247ZM144.655 88.032C146.895 88.032 148.911 87.424 150.703 86.208C152.495 84.992 153.903 83.2 154.927 80.832C155.951 78.4 156.463 75.392 156.463 71.808C156.463 68.672 156.079 65.984 155.311 63.744C154.543 61.504 153.359 59.808 151.759 58.656C150.223 57.44 148.143 56.832 145.519 56.832C143.727 56.832 141.903 57.28 140.047 58.176C138.191 59.072 136.303 60.512 134.383 62.496V83.712C136.111 85.248 137.903 86.368 139.759 87.072C141.615 87.712 143.247 88.032 144.655 88.032ZM204.618 97.152C199.818 97.152 195.466 96.192 191.562 94.272C187.658 92.288 184.554 89.472 182.25 85.824C179.946 82.112 178.794 77.632 178.794 72.384C178.794 67.264 179.946 62.88 182.25 59.232C184.554 55.52 187.562 52.672 191.274 50.688C194.986 48.704 198.954 47.712 203.178 47.712C207.85 47.712 211.786 48.672 214.986 50.592C218.25 52.512 220.714 55.168 222.378 58.56C224.106 61.888 224.97 65.728 224.97 70.08C224.97 71.168 224.906 72.224 224.778 73.248C224.714 74.208 224.618 75.008 224.49 75.648H186.762V67.776H217.386L215.274 70.272C215.274 65.6 214.218 62.112 212.106 59.808C210.058 57.44 207.178 56.256 203.466 56.256C200.842 56.256 198.474 56.864 196.362 58.08C194.314 59.296 192.682 61.12 191.466 63.552C190.25 65.92 189.642 68.864 189.642 72.384C189.642 76.032 190.314 79.04 191.658 81.408C193.066 83.776 194.986 85.568 197.418 86.784C199.914 88 202.794 88.608 206.058 88.608C208.554 88.608 210.858 88.256 212.97 87.552C215.082 86.848 217.194 85.888 219.306 84.672L223.05 91.584C220.554 93.184 217.738 94.528 214.602 95.616C211.466 96.64 208.138 97.152 204.618 97.152ZM242.98 96V48.864H252.1L253.06 59.52H253.348C255.716 55.68 258.628 52.768 262.084 50.784C265.604 48.736 269.38 47.712 273.412 47.712C275.332 47.712 276.996 47.872 278.404 48.192C279.812 48.512 281.188 48.992 282.532 49.632L280.228 58.944C278.692 58.432 277.316 58.08 276.1 57.888C274.948 57.632 273.476 57.504 271.684 57.504C268.484 57.504 265.348 58.432 262.276 60.288C259.268 62.144 256.548 65.376 254.116 69.984V96H242.98ZM316.575 96V57.6H296.127V48.864H327.615V96H316.575ZM321.279 40.224C319.039 40.224 317.151 39.552 315.615 38.208C314.142 36.864 313.406 35.072 313.406 32.832C313.406 30.592 314.142 28.8 315.615 27.456C317.151 26.048 319.039 25.344 321.279 25.344C323.583 25.344 325.471 26.048 326.943 27.456C328.415 28.8 329.151 30.592 329.151 32.832C329.151 35.072 328.415 36.864 326.943 38.208C325.471 39.552 323.583 40.224 321.279 40.224ZM368.185 97.152C365.113 97.152 362.393 96.576 360.025 95.424C357.657 94.208 355.801 92.576 354.457 90.528C353.113 88.48 352.441 86.08 352.441 83.328C352.441 78.08 354.937 74.08 359.929 71.328C364.985 68.512 373.337 66.688 384.985 65.856C384.857 64.128 384.377 62.56 383.545 61.152C382.777 59.744 381.593 58.656 379.993 57.888C378.393 57.056 376.313 56.64 373.753 56.64C371.961 56.64 370.201 56.864 368.473 57.312C366.745 57.76 365.017 58.368 363.289 59.136C361.625 59.904 359.961 60.736 358.297 61.632L354.265 54.24C356.185 53.088 358.297 52.032 360.601 51.072C362.905 50.048 365.337 49.248 367.897 48.672C370.457 48.032 373.081 47.712 375.769 47.712C380.185 47.712 383.865 48.512 386.809 50.112C389.817 51.648 392.089 53.952 393.625 57.024C395.225 60.032 396.025 63.712 396.025 68.064V96H387.001L386.137 90.144H385.849C383.353 92.064 380.569 93.728 377.497 95.136C374.489 96.48 371.385 97.152 368.185 97.152ZM371.545 88.512C373.913 88.512 376.185 88 378.361 86.976C380.601 85.888 382.809 84.48 384.985 82.752V72.768C379.353 73.152 374.937 73.792 371.737 74.688C368.537 75.52 366.297 76.608 365.017 77.952C363.737 79.296 363.097 80.8 363.097 82.464C363.097 83.872 363.481 85.024 364.249 85.92C365.017 86.816 366.009 87.488 367.225 87.936C368.505 88.32 369.945 88.512 371.545 88.512ZM441.588 97.152C436.148 97.152 431.988 95.552 429.108 92.352C426.292 89.088 424.884 84.576 424.884 78.816V36.96H409.523V28.224H435.924V79.392C435.924 82.592 436.724 84.864 438.324 86.208C439.988 87.488 442.004 88.128 444.372 88.128C445.588 88.128 446.836 88 448.116 87.744C449.396 87.424 450.836 86.944 452.436 86.304L455.028 94.464C452.788 95.232 450.676 95.872 448.692 96.384C446.772 96.896 444.404 97.152 441.588 97.152Z" fill="url(#paint0_linear_493_402)"/>
<rect x="493" y="13" width="297" height="98" rx="10" fill="url(#paint1_linear_493_402)"/>
<path d="M525.895 96.152C522.439 96.152 519.335 95.64 516.583 94.616C513.895 93.592 511.591 92.056 509.671 90.008C507.815 87.96 506.375 85.368 505.351 82.232C504.391 79.032 503.911 75.288 503.911 71V32.216H515.047V71.864C515.047 75.256 515.463 78.04 516.295 80.216C517.191 82.328 518.471 83.896 520.135 84.92C521.799 85.944 523.719 86.456 525.895 86.456C528.199 86.456 530.151 85.944 531.751 84.92C533.415 83.896 534.695 82.328 535.591 80.216C536.551 78.04 537.031 75.256 537.031 71.864V32.216H547.687V71C547.687 75.288 547.207 79.032 546.247 82.232C545.287 85.368 543.847 87.96 541.927 90.008C540.071 92.056 537.799 93.592 535.111 94.616C532.423 95.64 529.351 96.152 525.895 96.152ZM592.962 96.152C587.522 96.152 583.362 94.552 580.482 91.352C577.666 88.088 576.258 83.576 576.258 77.816V35.96H560.898V27.224H587.298V78.392C587.298 81.592 588.098 83.864 589.698 85.208C591.362 86.488 593.378 87.128 595.746 87.128C596.962 87.128 598.21 87 599.49 86.744C600.77 86.424 602.21 85.944 603.81 85.304L606.402 93.464C604.162 94.232 602.05 94.872 600.066 95.384C598.146 95.896 595.778 96.152 592.962 96.152ZM649.66 96.152C644.86 96.152 641.052 95.32 638.236 93.656C635.42 91.928 633.404 89.56 632.188 86.552C630.972 83.544 630.364 80.056 630.364 76.088V56.6H617.788V48.344L630.844 47.864L632.284 33.08H641.404V47.864H662.908V56.6H641.404V75.992C641.404 78.552 641.756 80.696 642.46 82.424C643.164 84.088 644.316 85.336 645.916 86.168C647.516 86.936 649.628 87.32 652.252 87.32C654.3 87.32 656.156 87.16 657.82 86.84C659.484 86.52 661.084 86.072 662.62 85.496L664.732 93.464C662.62 94.168 660.348 94.776 657.916 95.288C655.484 95.864 652.732 96.152 649.66 96.152ZM682.167 95V47.864H691.287L692.247 58.52H692.535C694.903 54.68 697.815 51.768 701.271 49.784C704.791 47.736 708.567 46.712 712.599 46.712C714.519 46.712 716.183 46.872 717.591 47.192C718.999 47.512 720.375 47.992 721.719 48.632L719.415 57.944C717.879 57.432 716.503 57.08 715.287 56.888C714.135 56.632 712.663 56.504 710.871 56.504C707.671 56.504 704.535 57.432 701.463 59.288C698.455 61.144 695.735 64.376 693.303 68.984V95H682.167ZM749.809 96.152C746.737 96.152 744.017 95.576 741.649 94.424C739.281 93.208 737.425 91.576 736.081 89.528C734.737 87.48 734.065 85.08 734.065 82.328C734.065 77.08 736.561 73.08 741.553 70.328C746.609 67.512 754.961 65.688 766.609 64.856C766.481 63.128 766.001 61.56 765.169 60.152C764.401 58.744 763.217 57.656 761.617 56.888C760.017 56.056 757.937 55.64 755.377 55.64C753.585 55.64 751.825 55.864 750.097 56.312C748.369 56.76 746.641 57.368 744.913 58.136C743.249 58.904 741.585 59.736 739.921 60.632L735.889 53.24C737.809 52.088 739.921 51.032 742.225 50.072C744.529 49.048 746.961 48.248 749.521 47.672C752.081 47.032 754.705 46.712 757.393 46.712C761.809 46.712 765.489 47.512 768.433 49.112C771.441 50.648 773.713 52.952 775.249 56.024C776.849 59.032 777.649 62.712 777.649 67.064V95H768.625L767.761 89.144H767.473C764.977 91.064 762.193 92.728 759.121 94.136C756.113 95.48 753.009 96.152 749.809 96.152ZM753.169 87.512C755.537 87.512 757.809 87 759.985 85.976C762.225 84.888 764.433 83.48 766.609 81.752V71.768C760.977 72.152 756.561 72.792 753.361 73.688C750.161 74.52 747.921 75.608 746.641 76.952C745.361 78.296 744.721 79.8 744.721 81.464C744.721 82.872 745.105 84.024 745.873 84.92C746.641 85.816 747.633 86.488 748.849 86.936C750.129 87.32 751.569 87.512 753.169 87.512Z" fill="#131313"/>
<defs>
<linearGradient id="paint0_linear_493_402" x1="230.5" y1="1" x2="230.5" y2="122" gradientUnits="userSpaceOnUse">
<stop stop-color="#3CF3FF"/>
<stop offset="1" stop-color="#006BA7"/>
</linearGradient>
<linearGradient id="paint1_linear_493_402" x1="641.5" y1="13" x2="641.5" y2="111" gradientUnits="userSpaceOnUse">
<stop stop-color="#3CF3FF"/>
<stop offset="1" stop-color="#006BA7"/>
</linearGradient>
</defs>
</svg>
