<svg width="56" height="32" viewBox="0 0 56 32" fill="none" xmlns="http://www.w3.org/2000/svg">
<path d="M26.7336 31.4771C26.7336 21.0384 4.14327 3.37464 0 0C3.14039 2.00575 16.7707 10.7901 24.0471 14.0256C26.9459 15.0871 26.9459 15.0871 29.7056 14.0256C36.6379 11.2073 50.1145 3.53569 56 0C51.9373 3.06719 26.7336 21.0384 26.7336 31.4771Z" fill="url(#paint0_linear_78_61)"/>
<path d="M31.9599 5.73183C26.4478 3.82125 28.6658 9.95563 30.8839 11.9833C26.7699 13.4401 27.2676 13.7695 22.8828 11.9833C24.4991 9.02595 24.586 6.30038 24.4274 5.30726C24.2785 4.35563 24.7993 2.50799 28.0729 2.73053C31.3465 2.95306 32.0283 4.82412 31.9599 5.73183Z" fill="url(#paint1_linear_78_61)"/>
<defs>
<linearGradient id="paint0_linear_78_61" x1="28" y1="0" x2="28" y2="31.4771" gradientUnits="userSpaceOnUse">
<stop stop-color="#D1992C"/>
<stop offset="1" stop-color="#75581F"/>
</linearGradient>
<linearGradient id="paint1_linear_78_61" x1="27.4236" y1="2.7121" x2="27.4236" y2="13.2025" gradientUnits="userSpaceOnUse">
<stop stop-color="#D1992C"/>
<stop offset="1" stop-color="#75581F"/>
</linearGradient>
</defs>
</svg>
