<svg width="65" height="25" viewBox="0 0 65 25" fill="none" xmlns="http://www.w3.org/2000/svg">
<rect y="3" width="65" height="21" rx="3" fill="url(#paint0_linear_49_1156)"/>
<path d="M3.8 20V6.92H6.36L7.92 12.02L8.46 13.98H8.54L9.06 12.02L10.64 6.92H13.2V20H11.16V14.72C11.16 14.3733 11.1667 13.9667 11.18 13.5C11.2067 13.02 11.24 12.52 11.28 12C11.32 11.48 11.36 10.9933 11.4 10.54C11.44 10.0733 11.4733 9.68 11.5 9.36H11.44L10.56 12.4L9.12 16.54H7.8L6.38 12.4L5.52 9.36H5.46C5.5 9.68 5.54 10.0733 5.58 10.54C5.62 10.9933 5.65333 11.48 5.68 12C5.72 12.52 5.74667 13.02 5.76 13.5C5.78667 13.9667 5.8 14.3733 5.8 14.72V20H3.8ZM21.0922 20.24C20.0922 20.24 19.1855 20.04 18.3722 19.64C17.5589 19.2267 16.9122 18.64 16.4322 17.88C15.9522 17.1067 15.7122 16.1733 15.7122 15.08C15.7122 14.0133 15.9522 13.1 16.4322 12.34C16.9122 11.5667 17.5389 10.9733 18.3122 10.56C19.0855 10.1467 19.9122 9.94 20.7922 9.94C21.7655 9.94 22.5855 10.14 23.2522 10.54C23.9322 10.94 24.4455 11.4933 24.7922 12.2C25.1522 12.8933 25.3322 13.6933 25.3322 14.6C25.3322 14.8267 25.3189 15.0467 25.2922 15.26C25.2789 15.46 25.2589 15.6267 25.2322 15.76H17.3722V14.12H23.7522L23.3122 14.64C23.3122 13.6667 23.0922 12.94 22.6522 12.46C22.2255 11.9667 21.6255 11.72 20.8522 11.72C20.3055 11.72 19.8122 11.8467 19.3722 12.1C18.9455 12.3533 18.6055 12.7333 18.3522 13.24C18.0989 13.7333 17.9722 14.3467 17.9722 15.08C17.9722 15.84 18.1122 16.4667 18.3922 16.96C18.6855 17.4533 19.0855 17.8267 19.5922 18.08C20.1122 18.3333 20.7122 18.46 21.3922 18.46C21.9122 18.46 22.3922 18.3867 22.8322 18.24C23.2722 18.0933 23.7122 17.8933 24.1522 17.64L24.9322 19.08C24.4122 19.4133 23.8255 19.6933 23.1722 19.92C22.5189 20.1333 21.8255 20.24 21.0922 20.24ZM31.7444 20.24C30.491 20.24 29.4777 19.7867 28.7044 18.88C27.931 17.9733 27.5444 16.7133 27.5444 15.1C27.5444 14.0333 27.751 13.1133 28.1644 12.34C28.5777 11.5667 29.1177 10.9733 29.7844 10.56C30.451 10.1467 31.151 9.94 31.8844 9.94C32.4444 9.94 32.9377 10.04 33.3644 10.24C33.8044 10.44 34.211 10.7267 34.5844 11.1H34.6444L34.5244 9.44V5.88H36.8444V20H34.9444L34.7644 18.86H34.7044C34.331 19.2333 33.8844 19.56 33.3644 19.84C32.8444 20.1067 32.3044 20.24 31.7444 20.24ZM32.3044 18.34C32.7044 18.34 33.091 18.2467 33.4644 18.06C33.8377 17.86 34.191 17.56 34.5244 17.16V12.74C34.1777 12.4067 33.831 12.1733 33.4844 12.04C33.1377 11.9067 32.7844 11.84 32.4244 11.84C31.971 11.84 31.551 11.9667 31.1644 12.22C30.791 12.4733 30.491 12.84 30.2644 13.32C30.0377 13.8 29.9244 14.3867 29.9244 15.08C29.9244 16.1333 30.131 16.94 30.5444 17.5C30.971 18.06 31.5577 18.34 32.3044 18.34ZM44.4166 20V12H40.1566V10.18H46.7166V20H44.4166ZM45.3966 8.38C44.9299 8.38 44.5366 8.24 44.2166 7.96C43.9099 7.68 43.7566 7.30667 43.7566 6.84C43.7566 6.37333 43.9099 6 44.2166 5.72C44.5366 5.42667 44.9299 5.28 45.3966 5.28C45.8766 5.28 46.2699 5.42667 46.5766 5.72C46.8832 6 47.0366 6.37333 47.0366 6.84C47.0366 7.30667 46.8832 7.68 46.5766 7.96C46.2699 8.24 45.8766 8.38 45.3966 8.38ZM55.1688 20.24C54.5288 20.24 53.9621 20.12 53.4688 19.88C52.9754 19.6267 52.5888 19.2867 52.3088 18.86C52.0288 18.4333 51.8888 17.9333 51.8888 17.36C51.8888 16.2667 52.4088 15.4333 53.4488 14.86C54.5021 14.2733 56.2421 13.8933 58.6688 13.72C58.6421 13.36 58.5421 13.0333 58.3688 12.74C58.2088 12.4467 57.9621 12.22 57.6288 12.06C57.2954 11.8867 56.8621 11.8 56.3288 11.8C55.9554 11.8 55.5888 11.8467 55.2288 11.94C54.8688 12.0333 54.5088 12.16 54.1488 12.32C53.8021 12.48 53.4554 12.6533 53.1087 12.84L52.2688 11.3C52.6688 11.06 53.1088 10.84 53.5888 10.64C54.0688 10.4267 54.5754 10.26 55.1088 10.14C55.6421 10.0067 56.1888 9.94 56.7488 9.94C57.6688 9.94 58.4354 10.1067 59.0488 10.44C59.6754 10.76 60.1488 11.24 60.4688 11.88C60.8021 12.5067 60.9688 13.2733 60.9688 14.18V20H59.0888L58.9088 18.78H58.8488C58.3288 19.18 57.7488 19.5267 57.1088 19.82C56.4821 20.1 55.8354 20.24 55.1688 20.24ZM55.8688 18.44C56.3621 18.44 56.8354 18.3333 57.2888 18.12C57.7554 17.8933 58.2154 17.6 58.6688 17.24V15.16C57.4954 15.24 56.5754 15.3733 55.9088 15.56C55.2421 15.7333 54.7754 15.96 54.5088 16.24C54.2421 16.52 54.1088 16.8333 54.1088 17.18C54.1088 17.4733 54.1888 17.7133 54.3488 17.9C54.5088 18.0867 54.7154 18.2267 54.9688 18.32C55.2354 18.4 55.5354 18.44 55.8688 18.44Z" fill="#131313"/>
<defs>
<linearGradient id="paint0_linear_49_1156" x1="32.5" y1="3" x2="32.5" y2="24" gradientUnits="userSpaceOnUse">
<stop stop-color="#D12C85"/>
<stop offset="1" stop-color="#641725"/>
</linearGradient>
</defs>
</svg>
