<svg width="52" height="25" viewBox="0 0 52 25" fill="none" xmlns="http://www.w3.org/2000/svg">
<rect y="3" width="52" height="21" rx="3" fill="url(#paint0_linear_2_67)"/>
<path d="M3.76 20V6.92H8.06C9.02 6.92 9.87333 7.04667 10.62 7.3C11.3667 7.55333 11.9533 7.97333 12.38 8.56C12.82 9.14667 13.04 9.94667 13.04 10.96C13.04 11.92 12.82 12.7133 12.38 13.34C11.9533 13.9667 11.36 14.4333 10.6 14.74C9.85333 15.0467 9.00667 15.2 8.06 15.2H6.08V20H3.76ZM6.08 13.34H7.88C8.85333 13.34 9.57333 13.14 10.04 12.74C10.52 12.34 10.76 11.7467 10.76 10.96C10.76 10.1333 10.5133 9.56667 10.02 9.26C9.54 8.94 8.82667 8.78 7.88 8.78H6.08V13.34ZM18.6922 20.24C18.0522 20.24 17.4855 20.12 16.9922 19.88C16.4989 19.6267 16.1122 19.2867 15.8322 18.86C15.5522 18.4333 15.4122 17.9333 15.4122 17.36C15.4122 16.2667 15.9322 15.4333 16.9722 14.86C18.0255 14.2733 19.7655 13.8933 22.1922 13.72C22.1655 13.36 22.0655 13.0333 21.8922 12.74C21.7322 12.4467 21.4855 12.22 21.1522 12.06C20.8189 11.8867 20.3855 11.8 19.8522 11.8C19.4789 11.8 19.1122 11.8467 18.7522 11.94C18.3922 12.0333 18.0322 12.16 17.6722 12.32C17.3255 12.48 16.9789 12.6533 16.6322 12.84L15.7922 11.3C16.1922 11.06 16.6322 10.84 17.1122 10.64C17.5922 10.4267 18.0989 10.26 18.6322 10.14C19.1655 10.0067 19.7122 9.94 20.2722 9.94C21.1922 9.94 21.9589 10.1067 22.5722 10.44C23.1989 10.76 23.6722 11.24 23.9922 11.88C24.3255 12.5067 24.4922 13.2733 24.4922 14.18V20H22.6122L22.4322 18.78H22.3722C21.8522 19.18 21.2722 19.5267 20.6322 19.82C20.0055 20.1 19.3589 20.24 18.6922 20.24ZM19.3922 18.44C19.8855 18.44 20.3589 18.3333 20.8122 18.12C21.2789 17.8933 21.7389 17.6 22.1922 17.24V15.16C21.0189 15.24 20.0989 15.3733 19.4322 15.56C18.7655 15.7333 18.2989 15.96 18.0322 16.24C17.7655 16.52 17.6322 16.8333 17.6322 17.18C17.6322 17.4733 17.7122 17.7133 17.8722 17.9C18.0322 18.0867 18.2389 18.2267 18.4922 18.32C18.7589 18.4 19.0589 18.44 19.3922 18.44ZM32.0444 20.24C31.1244 20.24 30.2444 20.0933 29.4044 19.8C28.5644 19.4933 27.8377 19.1333 27.2244 18.72L28.2244 17.26C28.811 17.6467 29.4444 17.9533 30.1244 18.18C30.8044 18.3933 31.5444 18.5 32.3444 18.5C33.0244 18.5 33.5244 18.3867 33.8444 18.16C34.1777 17.92 34.3444 17.64 34.3444 17.32C34.3444 17.16 34.3044 17.0133 34.2244 16.88C34.1577 16.7467 34.031 16.6267 33.8444 16.52C33.6577 16.4 33.3844 16.2867 33.0244 16.18C32.6644 16.0733 32.1977 15.96 31.6244 15.84C30.3177 15.56 29.3577 15.18 28.7444 14.7C28.131 14.22 27.8244 13.6133 27.8244 12.88C27.8244 12.0133 28.1977 11.3067 28.9444 10.76C29.7044 10.2133 30.771 9.94 32.1444 9.94C32.9577 9.94 33.7177 10.0733 34.4244 10.34C35.1444 10.6067 35.751 10.9067 36.2444 11.24L35.1844 12.66C34.7177 12.34 34.2044 12.1 33.6444 11.94C33.0844 11.7667 32.5177 11.68 31.9444 11.68C31.5044 11.68 31.151 11.7267 30.8844 11.82C30.631 11.9133 30.4377 12.0467 30.3044 12.22C30.1844 12.38 30.1244 12.56 30.1244 12.76C30.1244 13.1067 30.3244 13.3667 30.7244 13.54C31.1244 13.7133 31.7777 13.9 32.6844 14.1C33.7377 14.3267 34.551 14.5867 35.1244 14.88C35.6977 15.16 36.091 15.4867 36.3044 15.86C36.531 16.22 36.6444 16.6667 36.6444 17.2C36.6444 17.76 36.4644 18.2733 36.1044 18.74C35.7577 19.1933 35.2444 19.56 34.5644 19.84C33.8844 20.1067 33.0444 20.24 32.0444 20.24ZM44.0366 20.24C43.1166 20.24 42.2366 20.0933 41.3966 19.8C40.5566 19.4933 39.8299 19.1333 39.2166 18.72L40.2166 17.26C40.8032 17.6467 41.4366 17.9533 42.1166 18.18C42.7966 18.3933 43.5366 18.5 44.3366 18.5C45.0166 18.5 45.5166 18.3867 45.8366 18.16C46.1699 17.92 46.3366 17.64 46.3366 17.32C46.3366 17.16 46.2966 17.0133 46.2166 16.88C46.1499 16.7467 46.0232 16.6267 45.8366 16.52C45.6499 16.4 45.3766 16.2867 45.0166 16.18C44.6566 16.0733 44.1899 15.96 43.6166 15.84C42.3099 15.56 41.3499 15.18 40.7366 14.7C40.1232 14.22 39.8166 13.6133 39.8166 12.88C39.8166 12.0133 40.1899 11.3067 40.9366 10.76C41.6966 10.2133 42.7632 9.94 44.1366 9.94C44.9499 9.94 45.7099 10.0733 46.4166 10.34C47.1366 10.6067 47.7432 10.9067 48.2366 11.24L47.1766 12.66C46.7099 12.34 46.1966 12.1 45.6366 11.94C45.0766 11.7667 44.5099 11.68 43.9366 11.68C43.4966 11.68 43.1432 11.7267 42.8766 11.82C42.6232 11.9133 42.4299 12.0467 42.2966 12.22C42.1766 12.38 42.1166 12.56 42.1166 12.76C42.1166 13.1067 42.3166 13.3667 42.7166 13.54C43.1166 13.7133 43.7699 13.9 44.6766 14.1C45.7299 14.3267 46.5432 14.5867 47.1166 14.88C47.6899 15.16 48.0832 15.4867 48.2966 15.86C48.5232 16.22 48.6366 16.6667 48.6366 17.2C48.6366 17.76 48.4566 18.2733 48.0966 18.74C47.7499 19.1933 47.2366 19.56 46.5566 19.84C45.8766 20.1067 45.0366 20.24 44.0366 20.24Z" fill="#131313"/>
<defs>
<linearGradient id="paint0_linear_2_67" x1="26" y1="3" x2="26" y2="24" gradientUnits="userSpaceOnUse">
<stop stop-color="#D1992C"/>
<stop offset="1" stop-color="#644A17"/>
</linearGradient>
</defs>
</svg>
