<svg width="65" height="25" viewBox="0 0 65 25" fill="none" xmlns="http://www.w3.org/2000/svg">
<rect y="3" width="65" height="21" rx="3" fill="url(#paint0_linear_492_377)"/>
<path d="M8.52 20.24C7.8 20.24 7.15333 20.1333 6.58 19.92C6.02 19.7067 5.54 19.3867 5.14 18.96C4.75333 18.5333 4.45333 17.9933 4.24 17.34C4.04 16.6733 3.94 15.8933 3.94 15V6.92H6.26V15.18C6.26 15.8867 6.34667 16.4667 6.52 16.92C6.70667 17.36 6.97333 17.6867 7.32 17.9C7.66667 18.1133 8.06667 18.22 8.52 18.22C9 18.22 9.40667 18.1133 9.74 17.9C10.0867 17.6867 10.3533 17.36 10.54 16.92C10.74 16.4667 10.84 15.8867 10.84 15.18V6.92H13.06V15C13.06 15.8933 12.96 16.6733 12.76 17.34C12.56 17.9933 12.26 18.5333 11.86 18.96C11.4733 19.3867 11 19.7067 10.44 19.92C9.88 20.1333 9.24 20.24 8.52 20.24ZM22.4922 20.24C21.3589 20.24 20.4922 19.9067 19.8922 19.24C19.3055 18.56 19.0122 17.62 19.0122 16.42V7.7H15.8122V5.88H21.3122V16.54C21.3122 17.2067 21.4789 17.68 21.8122 17.96C22.1589 18.2267 22.5789 18.36 23.0722 18.36C23.3255 18.36 23.5855 18.3333 23.8522 18.28C24.1189 18.2133 24.4189 18.1133 24.7522 17.98L25.2922 19.68C24.8255 19.84 24.3855 19.9733 23.9722 20.08C23.5722 20.1867 23.0789 20.24 22.4922 20.24ZM34.3044 20.24C33.3044 20.24 32.511 20.0667 31.9244 19.72C31.3377 19.36 30.9177 18.8667 30.6644 18.24C30.411 17.6133 30.2844 16.8867 30.2844 16.06V12H27.6644V10.28L30.3844 10.18L30.6844 7.1H32.5844V10.18H37.0644V12H32.5844V16.04C32.5844 16.5733 32.6577 17.02 32.8044 17.38C32.951 17.7267 33.191 17.9867 33.5244 18.16C33.8577 18.32 34.2977 18.4 34.8444 18.4C35.271 18.4 35.6577 18.3667 36.0044 18.3C36.351 18.2333 36.6844 18.14 37.0044 18.02L37.4444 19.68C37.0044 19.8267 36.531 19.9533 36.0244 20.06C35.5177 20.18 34.9444 20.24 34.3044 20.24ZM41.0766 20V10.18H42.9766L43.1766 12.4H43.2366C43.7299 11.6 44.3366 10.9933 45.0566 10.58C45.7899 10.1533 46.5766 9.94 47.4166 9.94C47.8166 9.94 48.1632 9.97333 48.4566 10.04C48.7499 10.1067 49.0366 10.2067 49.3166 10.34L48.8366 12.28C48.5166 12.1733 48.2299 12.1 47.9766 12.06C47.7366 12.0067 47.4299 11.98 47.0566 11.98C46.3899 11.98 45.7366 12.1733 45.0966 12.56C44.4699 12.9467 43.9032 13.62 43.3966 14.58V20H41.0766ZM55.1688 20.24C54.5288 20.24 53.9621 20.12 53.4688 19.88C52.9754 19.6267 52.5888 19.2867 52.3088 18.86C52.0288 18.4333 51.8888 17.9333 51.8888 17.36C51.8888 16.2667 52.4088 15.4333 53.4488 14.86C54.5021 14.2733 56.2421 13.8933 58.6688 13.72C58.6421 13.36 58.5421 13.0333 58.3688 12.74C58.2088 12.4467 57.9621 12.22 57.6288 12.06C57.2954 11.8867 56.8621 11.8 56.3288 11.8C55.9554 11.8 55.5888 11.8467 55.2288 11.94C54.8688 12.0333 54.5088 12.16 54.1488 12.32C53.8021 12.48 53.4554 12.6533 53.1087 12.84L52.2688 11.3C52.6688 11.06 53.1088 10.84 53.5888 10.64C54.0688 10.4267 54.5754 10.26 55.1088 10.14C55.6421 10.0067 56.1888 9.94 56.7488 9.94C57.6688 9.94 58.4354 10.1067 59.0488 10.44C59.6754 10.76 60.1488 11.24 60.4688 11.88C60.8021 12.5067 60.9688 13.2733 60.9688 14.18V20H59.0888L58.9088 18.78H58.8488C58.3288 19.18 57.7488 19.5267 57.1088 19.82C56.4821 20.1 55.8354 20.24 55.1688 20.24ZM55.8688 18.44C56.3621 18.44 56.8354 18.3333 57.2888 18.12C57.7554 17.8933 58.2154 17.6 58.6688 17.24V15.16C57.4954 15.24 56.5754 15.3733 55.9088 15.56C55.2421 15.7333 54.7754 15.96 54.5088 16.24C54.2421 16.52 54.1088 16.8333 54.1088 17.18C54.1088 17.4733 54.1888 17.7133 54.3488 17.9C54.5088 18.0867 54.7154 18.2267 54.9688 18.32C55.2354 18.4 55.5354 18.44 55.8688 18.44Z" fill="#131313"/>
<defs>
<linearGradient id="paint0_linear_492_377" x1="32.5" y1="3" x2="32.5" y2="24" gradientUnits="userSpaceOnUse">
<stop stop-color="#3CF3FF"/>
<stop offset="1" stop-color="#006BA7"/>
</linearGradient>
</defs>
</svg>
