<svg width="65" height="25" viewBox="0 0 65 25" fill="none" xmlns="http://www.w3.org/2000/svg">
<rect y="3" width="65" height="21" rx="3" fill="url(#paint0_linear_184_80)"/>
<path d="M8.04 20.24C7.12 20.24 6.24 20.0733 5.4 19.74C4.56 19.4067 3.81333 18.9333 3.16 18.32L4.52 16.74C5.01333 17.18 5.57333 17.54 6.2 17.82C6.82667 18.0867 7.48667 18.22 8.18 18.22C8.94 18.22 9.52 18.0733 9.92 17.78C10.32 17.4733 10.52 17.0933 10.52 16.64C10.52 16.2533 10.4267 15.9467 10.24 15.72C10.0533 15.48 9.79333 15.28 9.46 15.12C9.14 14.96 8.76 14.7933 8.32 14.62L6.54 13.84C6.08667 13.6533 5.64 13.4133 5.2 13.12C4.77333 12.8267 4.42 12.4533 4.14 12C3.87333 11.5467 3.74 11 3.74 10.36C3.74 9.66667 3.93333 9.04667 4.32 8.5C4.70667 7.94 5.24 7.5 5.92 7.18C6.61333 6.84667 7.4 6.68 8.28 6.68C9.08 6.68 9.84 6.83333 10.56 7.14C11.2933 7.43333 11.9333 7.83333 12.48 8.34L11.28 9.82C10.84 9.46 10.3733 9.18667 9.88 9C9.4 8.8 8.82667 8.7 8.16 8.7C7.54667 8.7 7.04667 8.83333 6.66 9.1C6.27333 9.36667 6.08 9.74667 6.08 10.24C6.08 10.5733 6.18667 10.8467 6.4 11.06C6.61333 11.2733 6.88667 11.46 7.22 11.62C7.56667 11.78 7.93333 11.9333 8.32 12.08L10.04 12.82C10.6 13.0333 11.0933 13.2933 11.52 13.6C11.9467 13.9067 12.28 14.2867 12.52 14.74C12.76 15.18 12.88 15.72 12.88 16.36C12.88 17.0667 12.6867 17.7133 12.3 18.3C11.9133 18.8867 11.36 19.36 10.64 19.72C9.92 20.0667 9.05333 20.24 8.04 20.24ZM21.8122 20.24C20.8122 20.24 20.0189 20.0667 19.4322 19.72C18.8455 19.36 18.4255 18.8667 18.1722 18.24C17.9189 17.6133 17.7922 16.8867 17.7922 16.06V12H15.1722V10.28L17.8922 10.18L18.1922 7.1H20.0922V10.18H24.5722V12H20.0922V16.04C20.0922 16.5733 20.1655 17.02 20.3122 17.38C20.4589 17.7267 20.6989 17.9867 21.0322 18.16C21.3655 18.32 21.8055 18.4 22.3522 18.4C22.7789 18.4 23.1655 18.3667 23.5122 18.3C23.8589 18.2333 24.1922 18.14 24.5122 18.02L24.9522 19.68C24.5122 19.8267 24.0389 19.9533 23.5322 20.06C23.0255 20.18 22.4522 20.24 21.8122 20.24ZM30.6844 20.24C30.0444 20.24 29.4777 20.12 28.9844 19.88C28.491 19.6267 28.1044 19.2867 27.8244 18.86C27.5444 18.4333 27.4044 17.9333 27.4044 17.36C27.4044 16.2667 27.9244 15.4333 28.9644 14.86C30.0177 14.2733 31.7577 13.8933 34.1844 13.72C34.1577 13.36 34.0577 13.0333 33.8844 12.74C33.7244 12.4467 33.4777 12.22 33.1444 12.06C32.811 11.8867 32.3777 11.8 31.8444 11.8C31.471 11.8 31.1044 11.8467 30.7444 11.94C30.3844 12.0333 30.0244 12.16 29.6644 12.32C29.3177 12.48 28.971 12.6533 28.6244 12.84L27.7844 11.3C28.1844 11.06 28.6244 10.84 29.1044 10.64C29.5844 10.4267 30.091 10.26 30.6244 10.14C31.1577 10.0067 31.7044 9.94 32.2644 9.94C33.1844 9.94 33.951 10.1067 34.5644 10.44C35.191 10.76 35.6644 11.24 35.9844 11.88C36.3177 12.5067 36.4844 13.2733 36.4844 14.18V20H34.6044L34.4244 18.78H34.3644C33.8444 19.18 33.2644 19.5267 32.6244 19.82C31.9977 20.1 31.351 20.24 30.6844 20.24ZM31.3844 18.44C31.8777 18.44 32.351 18.3333 32.8044 18.12C33.271 17.8933 33.731 17.6 34.1844 17.24V15.16C33.011 15.24 32.091 15.3733 31.4244 15.56C30.7577 15.7333 30.291 15.96 30.0244 16.24C29.7577 16.52 29.6244 16.8333 29.6244 17.18C29.6244 17.4733 29.7044 17.7133 29.8644 17.9C30.0244 18.0867 30.231 18.2267 30.4844 18.32C30.751 18.4 31.051 18.44 31.3844 18.44ZM42.5366 20V9.64C42.5366 8.86667 42.6832 8.18 42.9766 7.58C43.2699 6.96667 43.7232 6.49333 44.3366 6.16C44.9499 5.81333 45.7366 5.64 46.6966 5.64C47.2299 5.64 47.7366 5.69333 48.2166 5.8C48.7099 5.89333 49.1766 6.02 49.6166 6.18L49.1366 7.88C48.7766 7.73333 48.4232 7.62667 48.0766 7.56C47.7432 7.49333 47.3766 7.46 46.9766 7.46C46.2299 7.46 45.6832 7.64667 45.3366 8.02C44.9899 8.38 44.8166 8.90667 44.8166 9.6V20H42.5366ZM39.8166 12V10.28L42.5966 10.18H48.5566V12H39.8166ZM54.5288 20V9.64C54.5288 8.86667 54.6754 8.18 54.9688 7.58C55.2621 6.96667 55.7154 6.49333 56.3288 6.16C56.9421 5.81333 57.7288 5.64 58.6888 5.64C59.2221 5.64 59.7288 5.69333 60.2088 5.8C60.7021 5.89333 61.1688 6.02 61.6088 6.18L61.1288 7.88C60.7688 7.73333 60.4154 7.62667 60.0687 7.56C59.7354 7.49333 59.3688 7.46 58.9688 7.46C58.2221 7.46 57.6754 7.64667 57.3288 8.02C56.9821 8.38 56.8088 8.90667 56.8088 9.6V20H54.5288ZM51.8088 12V10.28L54.5888 10.18H60.5488V12H51.8088Z" fill="#131313"/>
<defs>
<linearGradient id="paint0_linear_184_80" x1="32.5" y1="3" x2="32.5" y2="24" gradientUnits="userSpaceOnUse">
<stop stop-color="#2CD15A"/>
<stop offset="1" stop-color="#17643B"/>
</linearGradient>
</defs>
</svg>
