<svg width="26" height="26" viewBox="0 0 26 26" fill="none" xmlns="http://www.w3.org/2000/svg">
<path d="M25.4818 10.6105L22.6874 9.77635C22.4942 9.10178 22.2285 8.45013 21.895 7.83278L23.263 5.27195C23.3143 5.17528 23.3331 5.06465 23.3166 4.95645C23.3 4.84826 23.2491 4.74829 23.1712 4.67136L21.1776 2.6694C21.1007 2.59155 21.0007 2.54058 20.8925 2.52405C20.7843 2.50752 20.6737 2.52632 20.577 2.57765L18.0329 3.93731C17.4094 3.58752 16.7492 3.30777 16.0643 3.10316L15.2301 0.342129C15.1948 0.240376 15.1282 0.152442 15.0397 0.0909847C14.9513 0.029527 14.8456 -0.00228494 14.738 0.000127765H11.9186C11.8102 0.00063207 11.7049 0.0356913 11.6179 0.100203C11.5309 0.164715 11.4667 0.255313 11.4347 0.358812L10.6006 3.1115C9.90994 3.31502 9.24408 3.59479 8.61533 3.94565L6.11288 2.59433C6.01622 2.543 5.90558 2.5242 5.79739 2.54073C5.6892 2.55726 5.58922 2.60823 5.5123 2.68609L3.48532 4.66302C3.40746 4.73994 3.35649 4.83992 3.33996 4.94811C3.32343 5.0563 3.34223 5.16694 3.39356 5.2636L4.74488 7.76605C4.39458 8.39216 4.11482 9.05519 3.91073 9.74298L1.1497 10.5771C1.0462 10.6091 0.955603 10.6733 0.891091 10.7603C0.826579 10.8473 0.79152 10.9526 0.791016 11.0609V13.8804C0.79152 13.9887 0.826579 14.094 0.891091 14.181C0.955603 14.268 1.0462 14.3322 1.1497 14.3642L3.92741 15.1983C4.13374 15.8747 4.41345 16.5264 4.76156 17.1419L3.39356 19.7611C3.34223 19.8578 3.32343 19.9684 3.33996 20.0766C3.35649 20.1848 3.40746 20.2848 3.48532 20.3617L5.47893 22.3553C5.55586 22.4332 5.65583 22.4841 5.76403 22.5007C5.87222 22.5172 5.98285 22.4984 6.07952 22.4471L8.65704 21.0707C9.26677 21.3997 9.90994 21.6626 10.5756 21.8548L11.4097 24.6659C11.4417 24.7694 11.5058 24.86 11.5929 24.9245C11.6799 24.989 11.7852 25.0241 11.8935 25.0246H14.713C14.8213 25.0241 14.9266 24.989 15.0136 24.9245C15.1006 24.86 15.1648 24.7694 15.1968 24.6659L16.0309 21.8465C16.6909 21.6533 17.3284 21.3904 17.9328 21.0624L20.527 22.4471C20.6236 22.4984 20.7343 22.5172 20.8425 22.5007C20.9507 22.4841 21.0506 22.4332 21.1276 22.3553L23.1212 20.3617C23.199 20.2848 23.25 20.1848 23.2665 20.0766C23.2831 19.9684 23.2643 19.8578 23.2129 19.7611L21.8282 17.1752C22.1597 16.5686 22.4254 15.9282 22.6207 15.265L25.4318 14.4309C25.5353 14.3989 25.6259 14.3348 25.6904 14.2478C25.7549 14.1607 25.7899 14.0554 25.7904 13.9471V11.1026C25.7954 10.9989 25.7684 10.8962 25.7133 10.8082C25.6581 10.7202 25.5773 10.6512 25.4818 10.6105ZM13.3283 17.1002C12.4209 17.1002 11.5339 16.8311 10.7794 16.327C10.025 15.8229 9.43692 15.1063 9.08968 14.268C8.74244 13.4297 8.65158 12.5073 8.8286 11.6173C9.00563 10.7274 9.44257 9.9099 10.0842 9.26828C10.7258 8.62666 11.5433 8.18971 12.4332 8.01269C13.3232 7.83567 14.2456 7.92652 15.0839 8.27376C15.9223 8.62101 16.6388 9.20904 17.1429 9.9635C17.647 10.718 17.9161 11.605 17.9161 12.5124C17.9161 13.7291 17.4327 14.896 16.5723 15.7564C15.712 16.6168 14.545 17.1002 13.3283 17.1002Z" fill="white"/>
</svg>
