<svg width="54" height="55" viewBox="0 0 54 55" fill="none" xmlns="http://www.w3.org/2000/svg">
<path fill-rule="evenodd" clip-rule="evenodd" d="M18.5625 17.7196C20.0744 17.7196 21.5441 17.9004 22.9511 18.2414C17.2399 22.2031 13.5 28.8058 13.5 36.2821C13.5 43.7584 17.2399 50.3611 22.9509 54.3217C21.5441 54.6639 20.0744 54.8446 18.5625 54.8446C8.31071 54.8446 0 46.5339 0 36.2821C0 26.0303 8.31071 17.7196 18.5625 17.7196ZM35.4375 17.7196C45.6893 17.7196 54 26.0303 54 36.2821C54 46.5339 45.6893 54.8446 35.4375 54.8446C25.1857 54.8446 16.875 46.5339 16.875 36.2821C16.875 26.0303 25.1857 17.7196 35.4375 17.7196ZM27 0.844604C36.3384 0.844604 44.0662 7.74042 45.3691 16.7177C42.3861 15.1993 39.0116 14.3446 35.4375 14.3446C32.4465 14.3446 29.5953 14.9432 26.9971 16.0271C24.4018 14.9426 21.552 14.3446 18.5625 14.3446C14.9877 14.3446 11.6126 15.1996 8.63062 16.7164C9.93377 7.74042 17.6616 0.844604 27 0.844604Z" fill="#D1992C"/>
</svg>
