<svg width="54" height="55" viewBox="0 0 54 55" fill="none" xmlns="http://www.w3.org/2000/svg">
<path d="M47.6719 13.5009H39.6562C39.6562 6.51102 33.9898 0.844604 27 0.844604C20.0102 0.844604 14.3438 6.51102 14.3438 13.5009H6.32812C2.83321 13.5009 0 16.3341 0 19.829V48.5165C0 52.0114 2.83321 54.8446 6.32812 54.8446H47.6719C51.1668 54.8446 54 52.0114 54 48.5165V19.829C54 16.3341 51.1668 13.5009 47.6719 13.5009ZM27 7.17273C30.4949 7.17273 33.3281 10.0059 33.3281 13.5009H20.6719C20.6719 10.0059 23.5051 7.17273 27 7.17273ZM42.3984 28.2665V30.3759C42.3984 32.1234 40.9819 33.5399 39.2344 33.5399C37.4869 33.5399 36.0703 32.1234 36.0703 30.3759V28.2665H17.9297V30.3759C17.9297 32.1234 16.5131 33.5399 14.7656 33.5399C13.0181 33.5399 11.6016 32.1234 11.6016 30.3759V28.2665C9.85405 28.2665 8.4375 26.8499 8.4375 25.1024C8.4375 23.3549 9.85405 21.9384 11.6016 21.9384H42.3984C44.146 21.9384 45.5625 23.3549 45.5625 25.1024C45.5625 26.8499 44.146 28.2665 42.3984 28.2665Z" fill="white"/>
</svg>
