<svg width="54" height="55" viewBox="0 0 54 55" fill="none" xmlns="http://www.w3.org/2000/svg">
<path fill-rule="evenodd" clip-rule="evenodd" d="M27 0.344604C12.0883 0.344604 0 12.4329 0 27.3446C0 42.2562 12.0883 54.3446 27 54.3446C41.9116 54.3446 54 42.2562 54 27.3446C54 12.4329 41.9116 0.344604 27 0.344604ZM29.7 13.8446C29.7 12.3534 28.4912 11.1446 27 11.1446C25.5088 11.1446 24.3 12.3534 24.3 13.8446V27.3446C24.3 28.8358 25.5088 30.0446 27 30.0446C28.4912 30.0446 29.7 28.8358 29.7 27.3446V13.8446Z" fill="white"/>
<path fill-rule="evenodd" clip-rule="evenodd" d="M46.691 1.13541C45.6367 2.18984 45.6367 3.89937 46.691 4.9538L49.391 7.6538C50.4454 8.70821 52.155 8.70821 53.2094 7.6538C54.2637 6.59937 54.2637 4.88984 53.2094 3.83541L50.5094 1.13541C49.455 0.0810035 47.7454 0.0810035 46.691 1.13541Z" fill="white"/>
</svg>
