<svg width="54" height="43" viewBox="0 0 54 43" fill="none" xmlns="http://www.w3.org/2000/svg">
<path d="M45.7431 4.36204C42.1953 2.69515 38.4499 1.5126 34.6025 0.844604C34.0761 1.81043 33.5997 2.80414 33.1754 3.82157C29.0773 3.18783 24.9098 3.18783 20.8116 3.82157C20.3871 2.80424 19.9108 1.81055 19.3845 0.844604C15.5347 1.51824 11.7869 2.7036 8.23543 4.37076C1.18495 15.0756 -0.726325 25.5146 0.229312 35.8054C4.35825 38.936 8.97971 41.3169 13.8928 42.8446C14.9991 41.3177 15.978 39.6978 16.8192 38.0021C15.2215 37.3898 13.6794 36.6343 12.2109 35.7444C12.5974 35.4567 12.9754 35.1603 13.3407 34.8726C17.6138 36.9349 22.2778 38.0042 26.9999 38.0042C31.722 38.0042 36.386 36.9349 40.6591 34.8726C41.0287 35.1821 41.4067 35.4785 41.7889 35.7444C40.3175 36.6357 38.7727 37.3927 37.1721 38.0065C38.0123 39.7014 38.9913 41.3199 40.0985 42.8446C45.0158 41.3231 49.6408 38.9433 53.7705 35.8097C54.8918 23.8757 51.855 13.5326 45.7431 4.36204ZM18.0297 29.4766C15.3666 29.4766 13.1665 26.9965 13.1665 23.9455C13.1665 20.8944 15.2902 18.3925 18.0212 18.3925C20.7522 18.3925 22.9353 20.8944 22.8885 23.9455C22.8418 26.9965 20.7437 29.4766 18.0297 29.4766ZM35.9702 29.4766C33.3029 29.4766 31.1113 26.9965 31.1113 23.9455C31.1113 20.8944 33.2349 18.3925 35.9702 18.3925C38.7054 18.3925 40.8715 20.8944 40.8248 23.9455C40.7781 26.9965 38.6842 29.4766 35.9702 29.4766Z" fill="white"/>
</svg>
