<svg width="15" height="25" viewBox="0 0 15 25" fill="none" xmlns="http://www.w3.org/2000/svg">
<path d="M9.28325 14.5552V17.603H12.9817V21.3015H9.28325V25H5.5283V21.3015H1.83074V17.603H5.5283V14.5441C2.34904 13.7157 0 10.8335 0 7.39606C0 3.31161 3.31161 0 7.39606 0C11.4805 0 14.7912 3.31161 14.7912 7.39606C14.7912 10.8474 12.481 13.7379 9.28325 14.5552ZM7.39606 3.69849C5.35337 3.69849 3.69757 5.35337 3.69757 7.39606C3.69757 9.43782 5.35337 11.0936 7.39606 11.0936C9.43875 11.0936 11.0946 9.43782 11.0946 7.39606C11.0946 5.35337 9.43875 3.69849 7.39606 3.69849Z" fill="white"/>
</svg>
