<svg width="176" height="30" viewBox="0 0 176 30" fill="none" xmlns="http://www.w3.org/2000/svg">
<path d="M2.4535 24V21.648H6.2455V10.656H2.4535V8.304H12.8215V10.656H9.0295V21.648H12.8215V24H2.4535ZM15.9321 24V12.216H18.0681L18.2841 13.704H18.3561C18.6121 13.192 18.9401 12.768 19.3401 12.432C19.7401 12.096 20.2841 11.928 20.9721 11.928C21.5161 11.928 21.9721 12.096 22.3401 12.432C22.7081 12.752 22.9641 13.24 23.1081 13.896C23.3801 13.32 23.7241 12.848 24.1401 12.48C24.5561 12.112 25.1081 11.928 25.7961 11.928C26.6281 11.928 27.2681 12.256 27.7161 12.912C28.1801 13.552 28.4121 14.464 28.4121 15.648V24H25.7481V15.84C25.7481 14.8 25.4361 14.28 24.8121 14.28C24.4921 14.28 24.2201 14.4 23.9961 14.64C23.7881 14.88 23.5641 15.256 23.3241 15.768V24H21.0201V15.84C21.0201 15.328 20.9481 14.944 20.8041 14.688C20.6601 14.416 20.4201 14.28 20.0841 14.28C19.7801 14.28 19.5161 14.4 19.2921 14.64C19.0681 14.88 18.8441 15.256 18.6201 15.768V24H15.9321ZM31.1868 28.656V12.216H33.4668L33.6828 13.56H33.7548C34.2668 13.08 34.8508 12.688 35.5068 12.384C36.1788 12.08 36.8508 11.928 37.5228 11.928C38.5628 11.928 39.4348 12.176 40.1388 12.672C40.8428 13.168 41.3868 13.864 41.7708 14.76C42.1548 15.656 42.3468 16.712 42.3468 17.928C42.3468 19.272 42.0988 20.416 41.6028 21.36C41.1068 22.304 40.4588 23.032 39.6588 23.544C38.8748 24.04 38.0268 24.288 37.1148 24.288C36.5868 24.288 36.0348 24.168 35.4588 23.928C34.8988 23.688 34.3788 23.344 33.8988 22.896H33.8268L33.9708 24.96V28.656H31.1868ZM36.5388 22.008C37.0988 22.008 37.6028 21.856 38.0508 21.552C38.4988 21.248 38.8508 20.8 39.1068 20.208C39.3628 19.6 39.4908 18.848 39.4908 17.952C39.4908 17.168 39.3948 16.496 39.2028 15.936C39.0108 15.376 38.7148 14.952 38.3148 14.664C37.9308 14.36 37.4108 14.208 36.7548 14.208C36.3068 14.208 35.8508 14.32 35.3867 14.544C34.9228 14.768 34.4508 15.128 33.9708 15.624V20.928C34.4028 21.312 34.8508 21.592 35.3148 21.768C35.7788 21.928 36.1868 22.008 36.5388 22.008ZM51.5294 24.288C50.3294 24.288 49.2414 24.048 48.2654 23.568C47.2894 23.072 46.5134 22.368 45.9374 21.456C45.3614 20.528 45.0734 19.408 45.0734 18.096C45.0734 16.816 45.3614 15.72 45.9374 14.808C46.5134 13.88 47.2654 13.168 48.1934 12.672C49.1214 12.176 50.1134 11.928 51.1694 11.928C52.3374 11.928 53.3214 12.168 54.1214 12.648C54.9374 13.128 55.5534 13.792 55.9694 14.64C56.4014 15.472 56.6174 16.432 56.6174 17.52C56.6174 17.792 56.6014 18.056 56.5694 18.312C56.5534 18.552 56.5294 18.752 56.4974 18.912H47.0654V16.944H54.7214L54.1934 17.568C54.1934 16.4 53.9294 15.528 53.4014 14.952C52.8894 14.36 52.1694 14.064 51.2414 14.064C50.5854 14.064 49.9934 14.216 49.4654 14.52C48.9534 14.824 48.5454 15.28 48.2414 15.888C47.9374 16.48 47.7854 17.216 47.7854 18.096C47.7854 19.008 47.9534 19.76 48.2894 20.352C48.6414 20.944 49.1214 21.392 49.7294 21.696C50.3534 22 51.0734 22.152 51.8894 22.152C52.5134 22.152 53.0894 22.064 53.6174 21.888C54.1454 21.712 54.6734 21.472 55.2014 21.168L56.1374 22.896C55.5134 23.296 54.8094 23.632 54.0254 23.904C53.2414 24.16 52.4094 24.288 51.5294 24.288ZM61.12 24V12.216H63.4L63.64 14.88H63.712C64.304 13.92 65.032 13.192 65.896 12.696C66.776 12.184 67.72 11.928 68.728 11.928C69.208 11.928 69.624 11.968 69.976 12.048C70.328 12.128 70.672 12.248 71.008 12.408L70.432 14.736C70.048 14.608 69.704 14.52 69.4 14.472C69.112 14.408 68.744 14.376 68.296 14.376C67.496 14.376 66.712 14.608 65.944 15.072C65.192 15.536 64.512 16.344 63.904 17.496V24H61.12ZM79.5186 24V14.4H74.4066V12.216H82.2786V24H79.5186ZM80.6946 10.056C80.1346 10.056 79.6626 9.888 79.2786 9.552C78.9106 9.216 78.7266 8.768 78.7266 8.208C78.7266 7.648 78.9106 7.2 79.2786 6.864C79.6626 6.512 80.1346 6.336 80.6946 6.336C81.2706 6.336 81.7426 6.512 82.1106 6.864C82.4786 7.2 82.6626 7.648 82.6626 8.208C82.6626 8.768 82.4786 9.216 82.1106 9.552C81.7426 9.888 81.2706 10.056 80.6946 10.056ZM92.4213 24.288C91.6533 24.288 90.9733 24.144 90.3813 23.856C89.7893 23.552 89.3253 23.144 88.9893 22.632C88.6533 22.12 88.4853 21.52 88.4853 20.832C88.4853 19.52 89.1093 18.52 90.3573 17.832C91.6213 17.128 93.7093 16.672 96.6213 16.464C96.5893 16.032 96.4693 15.64 96.2613 15.288C96.0693 14.936 95.7733 14.664 95.3733 14.472C94.9733 14.264 94.4533 14.16 93.8133 14.16C93.3653 14.16 92.9253 14.216 92.4933 14.328C92.0613 14.44 91.6293 14.592 91.1973 14.784C90.7813 14.976 90.3653 15.184 89.9492 15.408L88.9413 13.56C89.4213 13.272 89.9493 13.008 90.5253 12.768C91.1013 12.512 91.7093 12.312 92.3493 12.168C92.9893 12.008 93.6453 11.928 94.3173 11.928C95.4213 11.928 96.3413 12.128 97.0773 12.528C97.8293 12.912 98.3973 13.488 98.7812 14.256C99.1813 15.008 99.3813 15.928 99.3813 17.016V24H97.1253L96.9093 22.536H96.8373C96.2133 23.016 95.5173 23.432 94.7493 23.784C93.9973 24.12 93.2213 24.288 92.4213 24.288ZM93.2613 22.128C93.8533 22.128 94.4213 22 94.9653 21.744C95.5253 21.472 96.0773 21.12 96.6213 20.688V18.192C95.2133 18.288 94.1093 18.448 93.3093 18.672C92.5093 18.88 91.9493 19.152 91.6293 19.488C91.3093 19.824 91.1493 20.2 91.1493 20.616C91.1493 20.968 91.2453 21.256 91.4373 21.48C91.6293 21.704 91.8773 21.872 92.1813 21.984C92.5013 22.08 92.8613 22.128 93.2613 22.128ZM110.772 24.288C109.412 24.288 108.372 23.888 107.652 23.088C106.948 22.272 106.596 21.144 106.596 19.704V9.24H102.756V7.056H109.356V19.848C109.356 20.648 109.556 21.216 109.956 21.552C110.372 21.872 110.876 22.032 111.468 22.032C111.772 22.032 112.084 22 112.404 21.936C112.724 21.856 113.084 21.736 113.484 21.576L114.132 23.616C113.572 23.808 113.044 23.968 112.548 24.096C112.068 24.224 111.476 24.288 110.772 24.288Z" fill="url(#paint0_linear_53_160)"/>
<rect x="124" y="5.5" width="52" height="21" rx="3" fill="url(#paint1_linear_53_160)"/>
<path d="M127.76 22.5V9.42H132.06C133.02 9.42 133.873 9.54667 134.62 9.8C135.367 10.0533 135.953 10.4733 136.38 11.06C136.82 11.6467 137.04 12.4467 137.04 13.46C137.04 14.42 136.82 15.2133 136.38 15.84C135.953 16.4667 135.36 16.9333 134.6 17.24C133.853 17.5467 133.007 17.7 132.06 17.7H130.08V22.5H127.76ZM130.08 15.84H131.88C132.853 15.84 133.573 15.64 134.04 15.24C134.52 14.84 134.76 14.2467 134.76 13.46C134.76 12.6333 134.513 12.0667 134.02 11.76C133.54 11.44 132.827 11.28 131.88 11.28H130.08V15.84ZM142.692 22.74C142.052 22.74 141.486 22.62 140.992 22.38C140.499 22.1267 140.112 21.7867 139.832 21.36C139.552 20.9333 139.412 20.4333 139.412 19.86C139.412 18.7667 139.932 17.9333 140.972 17.36C142.026 16.7733 143.766 16.3933 146.192 16.22C146.166 15.86 146.066 15.5333 145.892 15.24C145.732 14.9467 145.486 14.72 145.152 14.56C144.819 14.3867 144.386 14.3 143.852 14.3C143.479 14.3 143.112 14.3467 142.752 14.44C142.392 14.5333 142.032 14.66 141.672 14.82C141.326 14.98 140.979 15.1533 140.632 15.34L139.792 13.8C140.192 13.56 140.632 13.34 141.112 13.14C141.592 12.9267 142.099 12.76 142.632 12.64C143.166 12.5067 143.712 12.44 144.272 12.44C145.192 12.44 145.959 12.6067 146.572 12.94C147.199 13.26 147.672 13.74 147.992 14.38C148.326 15.0067 148.492 15.7733 148.492 16.68V22.5H146.612L146.432 21.28H146.372C145.852 21.68 145.272 22.0267 144.632 22.32C144.006 22.6 143.359 22.74 142.692 22.74ZM143.392 20.94C143.886 20.94 144.359 20.8333 144.812 20.62C145.279 20.3933 145.739 20.1 146.192 19.74V17.66C145.019 17.74 144.099 17.8733 143.432 18.06C142.766 18.2333 142.299 18.46 142.032 18.74C141.766 19.02 141.632 19.3333 141.632 19.68C141.632 19.9733 141.712 20.2133 141.872 20.4C142.032 20.5867 142.239 20.7267 142.492 20.82C142.759 20.9 143.059 20.94 143.392 20.94ZM156.044 22.74C155.124 22.74 154.244 22.5933 153.404 22.3C152.564 21.9933 151.838 21.6333 151.224 21.22L152.224 19.76C152.811 20.1467 153.444 20.4533 154.124 20.68C154.804 20.8933 155.544 21 156.344 21C157.024 21 157.524 20.8867 157.844 20.66C158.178 20.42 158.344 20.14 158.344 19.82C158.344 19.66 158.304 19.5133 158.224 19.38C158.158 19.2467 158.031 19.1267 157.844 19.02C157.658 18.9 157.384 18.7867 157.024 18.68C156.664 18.5733 156.198 18.46 155.624 18.34C154.318 18.06 153.358 17.68 152.744 17.2C152.131 16.72 151.824 16.1133 151.824 15.38C151.824 14.5133 152.198 13.8067 152.944 13.26C153.704 12.7133 154.771 12.44 156.144 12.44C156.958 12.44 157.718 12.5733 158.424 12.84C159.144 13.1067 159.751 13.4067 160.244 13.74L159.184 15.16C158.718 14.84 158.204 14.6 157.644 14.44C157.084 14.2667 156.518 14.18 155.944 14.18C155.504 14.18 155.151 14.2267 154.884 14.32C154.631 14.4133 154.438 14.5467 154.304 14.72C154.184 14.88 154.124 15.06 154.124 15.26C154.124 15.6067 154.324 15.8667 154.724 16.04C155.124 16.2133 155.778 16.4 156.684 16.6C157.738 16.8267 158.551 17.0867 159.124 17.38C159.698 17.66 160.091 17.9867 160.304 18.36C160.531 18.72 160.644 19.1667 160.644 19.7C160.644 20.26 160.464 20.7733 160.104 21.24C159.758 21.6933 159.244 22.06 158.564 22.34C157.884 22.6067 157.044 22.74 156.044 22.74ZM168.037 22.74C167.117 22.74 166.237 22.5933 165.397 22.3C164.557 21.9933 163.83 21.6333 163.217 21.22L164.217 19.76C164.803 20.1467 165.437 20.4533 166.117 20.68C166.797 20.8933 167.537 21 168.337 21C169.017 21 169.517 20.8867 169.837 20.66C170.17 20.42 170.337 20.14 170.337 19.82C170.337 19.66 170.297 19.5133 170.217 19.38C170.15 19.2467 170.023 19.1267 169.837 19.02C169.65 18.9 169.377 18.7867 169.017 18.68C168.657 18.5733 168.19 18.46 167.617 18.34C166.31 18.06 165.35 17.68 164.737 17.2C164.123 16.72 163.817 16.1133 163.817 15.38C163.817 14.5133 164.19 13.8067 164.937 13.26C165.697 12.7133 166.763 12.44 168.137 12.44C168.95 12.44 169.71 12.5733 170.417 12.84C171.137 13.1067 171.743 13.4067 172.237 13.74L171.177 15.16C170.71 14.84 170.197 14.6 169.637 14.44C169.077 14.2667 168.51 14.18 167.937 14.18C167.497 14.18 167.143 14.2267 166.877 14.32C166.623 14.4133 166.43 14.5467 166.297 14.72C166.177 14.88 166.117 15.06 166.117 15.26C166.117 15.6067 166.317 15.8667 166.717 16.04C167.117 16.2133 167.77 16.4 168.677 16.6C169.73 16.8267 170.543 17.0867 171.117 17.38C171.69 17.66 172.083 17.9867 172.297 18.36C172.523 18.72 172.637 19.1667 172.637 19.7C172.637 20.26 172.457 20.7733 172.097 21.24C171.75 21.6933 171.237 22.06 170.557 22.34C169.877 22.6067 169.037 22.74 168.037 22.74Z" fill="#131313"/>
<defs>
<linearGradient id="paint0_linear_53_160" x1="58" y1="0" x2="58" y2="30" gradientUnits="userSpaceOnUse">
<stop stop-color="#D1992C"/>
<stop offset="1" stop-color="#6A4B0E"/>
</linearGradient>
<linearGradient id="paint1_linear_53_160" x1="150" y1="5.5" x2="150" y2="26.5" gradientUnits="userSpaceOnUse">
<stop stop-color="#D1992C"/>
<stop offset="1" stop-color="#644A17"/>
</linearGradient>
</defs>
</svg>
