<svg width="116" height="30" viewBox="0 0 116 30" fill="none" xmlns="http://www.w3.org/2000/svg">
<path d="M2.4535 24V21.648H6.2455V10.656H2.4535V8.304H12.8215V10.656H9.0295V21.648H12.8215V24H2.4535ZM15.9321 24V12.216H18.0681L18.2841 13.704H18.3561C18.6121 13.192 18.9401 12.768 19.3401 12.432C19.7401 12.096 20.2841 11.928 20.9721 11.928C21.5161 11.928 21.9721 12.096 22.3401 12.432C22.7081 12.752 22.9641 13.24 23.1081 13.896C23.3801 13.32 23.7241 12.848 24.1401 12.48C24.5561 12.112 25.1081 11.928 25.7961 11.928C26.6281 11.928 27.2681 12.256 27.7161 12.912C28.1801 13.552 28.4121 14.464 28.4121 15.648V24H25.7481V15.84C25.7481 14.8 25.4361 14.28 24.8121 14.28C24.4921 14.28 24.2201 14.4 23.9961 14.64C23.7881 14.88 23.5641 15.256 23.3241 15.768V24H21.0201V15.84C21.0201 15.328 20.9481 14.944 20.8041 14.688C20.6601 14.416 20.4201 14.28 20.0841 14.28C19.7801 14.28 19.5161 14.4 19.2921 14.64C19.0681 14.88 18.8441 15.256 18.6201 15.768V24H15.9321ZM31.1868 28.656V12.216H33.4668L33.6828 13.56H33.7548C34.2668 13.08 34.8508 12.688 35.5068 12.384C36.1788 12.08 36.8508 11.928 37.5228 11.928C38.5628 11.928 39.4348 12.176 40.1388 12.672C40.8428 13.168 41.3868 13.864 41.7708 14.76C42.1548 15.656 42.3468 16.712 42.3468 17.928C42.3468 19.272 42.0988 20.416 41.6028 21.36C41.1068 22.304 40.4588 23.032 39.6588 23.544C38.8748 24.04 38.0268 24.288 37.1148 24.288C36.5868 24.288 36.0348 24.168 35.4588 23.928C34.8988 23.688 34.3788 23.344 33.8988 22.896H33.8268L33.9708 24.96V28.656H31.1868ZM36.5388 22.008C37.0988 22.008 37.6028 21.856 38.0508 21.552C38.4988 21.248 38.8508 20.8 39.1068 20.208C39.3628 19.6 39.4908 18.848 39.4908 17.952C39.4908 17.168 39.3948 16.496 39.2028 15.936C39.0108 15.376 38.7148 14.952 38.3148 14.664C37.9308 14.36 37.4108 14.208 36.7548 14.208C36.3068 14.208 35.8508 14.32 35.3867 14.544C34.9228 14.768 34.4508 15.128 33.9708 15.624V20.928C34.4028 21.312 34.8508 21.592 35.3148 21.768C35.7788 21.928 36.1868 22.008 36.5388 22.008ZM51.5294 24.288C50.3294 24.288 49.2414 24.048 48.2654 23.568C47.2894 23.072 46.5134 22.368 45.9374 21.456C45.3614 20.528 45.0734 19.408 45.0734 18.096C45.0734 16.816 45.3614 15.72 45.9374 14.808C46.5134 13.88 47.2654 13.168 48.1934 12.672C49.1214 12.176 50.1134 11.928 51.1694 11.928C52.3374 11.928 53.3214 12.168 54.1214 12.648C54.9374 13.128 55.5534 13.792 55.9694 14.64C56.4014 15.472 56.6174 16.432 56.6174 17.52C56.6174 17.792 56.6014 18.056 56.5694 18.312C56.5534 18.552 56.5294 18.752 56.4974 18.912H47.0654V16.944H54.7214L54.1934 17.568C54.1934 16.4 53.9294 15.528 53.4014 14.952C52.8894 14.36 52.1694 14.064 51.2414 14.064C50.5854 14.064 49.9934 14.216 49.4654 14.52C48.9534 14.824 48.5454 15.28 48.2414 15.888C47.9374 16.48 47.7854 17.216 47.7854 18.096C47.7854 19.008 47.9534 19.76 48.2894 20.352C48.6414 20.944 49.1214 21.392 49.7294 21.696C50.3534 22 51.0734 22.152 51.8894 22.152C52.5134 22.152 53.0894 22.064 53.6174 21.888C54.1454 21.712 54.6734 21.472 55.2014 21.168L56.1374 22.896C55.5134 23.296 54.8094 23.632 54.0254 23.904C53.2414 24.16 52.4094 24.288 51.5294 24.288ZM61.12 24V12.216H63.4L63.64 14.88H63.712C64.304 13.92 65.032 13.192 65.896 12.696C66.776 12.184 67.72 11.928 68.728 11.928C69.208 11.928 69.624 11.968 69.976 12.048C70.328 12.128 70.672 12.248 71.008 12.408L70.432 14.736C70.048 14.608 69.704 14.52 69.4 14.472C69.112 14.408 68.744 14.376 68.296 14.376C67.496 14.376 66.712 14.608 65.944 15.072C65.192 15.536 64.512 16.344 63.904 17.496V24H61.12ZM79.5186 24V14.4H74.4066V12.216H82.2786V24H79.5186ZM80.6946 10.056C80.1346 10.056 79.6626 9.888 79.2786 9.552C78.9106 9.216 78.7266 8.768 78.7266 8.208C78.7266 7.648 78.9106 7.2 79.2786 6.864C79.6626 6.512 80.1346 6.336 80.6946 6.336C81.2706 6.336 81.7426 6.512 82.1106 6.864C82.4786 7.2 82.6626 7.648 82.6626 8.208C82.6626 8.768 82.4786 9.216 82.1106 9.552C81.7426 9.888 81.2706 10.056 80.6946 10.056ZM92.4213 24.288C91.6533 24.288 90.9733 24.144 90.3813 23.856C89.7893 23.552 89.3253 23.144 88.9893 22.632C88.6533 22.12 88.4853 21.52 88.4853 20.832C88.4853 19.52 89.1093 18.52 90.3573 17.832C91.6213 17.128 93.7093 16.672 96.6213 16.464C96.5893 16.032 96.4693 15.64 96.2613 15.288C96.0693 14.936 95.7733 14.664 95.3733 14.472C94.9733 14.264 94.4533 14.16 93.8133 14.16C93.3653 14.16 92.9253 14.216 92.4933 14.328C92.0613 14.44 91.6293 14.592 91.1973 14.784C90.7813 14.976 90.3653 15.184 89.9492 15.408L88.9413 13.56C89.4213 13.272 89.9493 13.008 90.5253 12.768C91.1013 12.512 91.7093 12.312 92.3493 12.168C92.9893 12.008 93.6453 11.928 94.3173 11.928C95.4213 11.928 96.3413 12.128 97.0773 12.528C97.8293 12.912 98.3973 13.488 98.7812 14.256C99.1813 15.008 99.3813 15.928 99.3813 17.016V24H97.1253L96.9093 22.536H96.8373C96.2133 23.016 95.5173 23.432 94.7493 23.784C93.9973 24.12 93.2213 24.288 92.4213 24.288ZM93.2613 22.128C93.8533 22.128 94.4213 22 94.9653 21.744C95.5253 21.472 96.0773 21.12 96.6213 20.688V18.192C95.2133 18.288 94.1093 18.448 93.3093 18.672C92.5093 18.88 91.9493 19.152 91.6293 19.488C91.3093 19.824 91.1493 20.2 91.1493 20.616C91.1493 20.968 91.2453 21.256 91.4373 21.48C91.6293 21.704 91.8773 21.872 92.1813 21.984C92.5013 22.08 92.8613 22.128 93.2613 22.128ZM110.772 24.288C109.412 24.288 108.372 23.888 107.652 23.088C106.948 22.272 106.596 21.144 106.596 19.704V9.24H102.756V7.056H109.356V19.848C109.356 20.648 109.556 21.216 109.956 21.552C110.372 21.872 110.876 22.032 111.468 22.032C111.772 22.032 112.084 22 112.404 21.936C112.724 21.856 113.084 21.736 113.484 21.576L114.132 23.616C113.572 23.808 113.044 23.968 112.548 24.096C112.068 24.224 111.476 24.288 110.772 24.288Z" fill="url(#paint0_linear_572_742)"/>
<defs>
<linearGradient id="paint0_linear_572_742" x1="58" y1="0" x2="58" y2="30" gradientUnits="userSpaceOnUse">
<stop stop-color="#D1992C"/>
<stop offset="1" stop-color="#6A4B0E"/>
</linearGradient>
</defs>
</svg>
