<svg width="25" height="25" viewBox="0 0 25 25" fill="none" xmlns="http://www.w3.org/2000/svg">
<path d="M14.1653 0H25L24.9763 10.9582L21.261 7.24412L17.7594 10.7457C18.5455 12.1278 18.9979 13.7224 18.9979 15.4251C18.9979 20.6709 14.7471 24.924 9.49893 24.924C4.25315 24.924 0 20.6709 0 15.4251C0 10.1793 4.25315 5.92615 9.49893 5.92615C11.3097 5.92615 12.9969 6.44265 14.4384 7.32249L17.9031 3.81263L14.1653 0ZM4.75065 15.4263C4.75065 18.0492 6.87723 20.1757 9.50012 20.1757C12.123 20.1757 14.2496 18.0492 14.2496 15.4263C14.2496 12.8034 12.123 10.6768 9.50012 10.6768C6.87723 10.6768 4.75065 12.8034 4.75065 15.4263Z" fill="white"/>
</svg>
