<svg width="25" height="26" viewBox="0 0 25 26" fill="none" xmlns="http://www.w3.org/2000/svg">
<circle cx="12.5" cy="13.3335" r="12.5" fill="#D1992C"/>
<path d="M10.91 15.4104C10.83 14.8904 10.8633 14.4371 11.01 14.0504C11.17 13.6638 11.3833 13.3238 11.65 13.0304C11.93 12.7371 12.2167 12.4704 12.51 12.2304C12.8033 11.9904 13.05 11.7571 13.25 11.5304C13.45 11.3038 13.55 11.0638 13.55 10.8104C13.55 10.4504 13.4233 10.1971 13.17 10.0504C12.93 9.89043 12.6567 9.81043 12.35 9.81043C11.9767 9.81043 11.65 9.89043 11.37 10.0504C11.09 10.2104 10.8033 10.4104 10.51 10.6504L8.63 8.93043C9.12333 8.37043 9.70333 7.9171 10.37 7.57043C11.05 7.22376 11.79 7.05043 12.59 7.05043C13.3633 7.05043 14.07 7.17043 14.71 7.41043C15.35 7.6371 15.8633 7.9971 16.25 8.49043C16.6367 8.97043 16.83 9.5971 16.83 10.3704C16.83 10.8904 16.7233 11.3304 16.51 11.6904C16.31 12.0504 16.0567 12.3704 15.75 12.6504C15.4433 12.9171 15.1433 13.1771 14.85 13.4304C14.5567 13.6838 14.3167 13.9704 14.13 14.2904C13.9433 14.5971 13.87 14.9704 13.91 15.4104H10.91ZM12.47 20.9304C11.83 20.9304 11.3033 20.7238 10.89 20.3104C10.4767 19.8838 10.27 19.3504 10.27 18.7104C10.27 18.0704 10.4767 17.5504 10.89 17.1504C11.3033 16.7371 11.83 16.5304 12.47 16.5304C13.11 16.5304 13.6367 16.7371 14.05 17.1504C14.4633 17.5504 14.67 18.0704 14.67 18.7104C14.67 19.3504 14.4633 19.8838 14.05 20.3104C13.6367 20.7238 13.11 20.9304 12.47 20.9304Z" fill="white"/>
</svg>
