<svg width="54" height="67" viewBox="0 0 54 67" fill="none" xmlns="http://www.w3.org/2000/svg">
<path d="M27 0.842041C27 0.842041 0 8.49204 0 9.84204V37.142C0 50.942 19.95 63.092 25.5 66.392C25.944 66.6887 26.466 66.847 27 66.847C27.534 66.847 28.056 66.6887 28.5 66.392C34.2 63.242 54 50.942 54 37.142V9.84204C54 8.49204 27 0.842041 27 0.842041ZM34.5 35.342H28.5L33.15 49.142C33.2091 49.2307 33.2502 49.3301 33.2708 49.4346C33.2915 49.5391 33.2914 49.6467 33.2705 49.7511C33.2496 49.8556 33.2083 49.9549 33.1491 50.0435C33.0898 50.132 33.0136 50.2079 32.925 50.267C32.8364 50.3261 32.7369 50.3672 32.6324 50.3879C32.5279 50.4085 32.4204 50.4084 32.3159 50.3875C32.2114 50.3666 32.1121 50.3254 32.0236 50.2661C31.9351 50.2068 31.8591 50.1307 31.8 50.042L18.45 31.892C18.2444 31.6824 18.1049 31.417 18.0488 31.1288C17.9926 30.8406 18.0223 30.5423 18.1341 30.2708C18.2458 29.9993 18.4349 29.7665 18.6777 29.6015C18.9205 29.4364 19.2064 29.3462 19.5 29.342H25.5L20.85 15.542C20.7307 15.363 20.6873 15.1439 20.7295 14.9329C20.7717 14.722 20.896 14.5364 21.075 14.417C21.254 14.2977 21.4731 14.2544 21.6841 14.2965C21.8951 14.3387 22.0807 14.463 22.2 14.642L35.55 32.792C35.7556 33.0017 35.8951 33.2671 35.9512 33.5553C36.0074 33.8435 35.9777 34.1418 35.8659 34.4133C35.7542 34.6848 35.5651 34.9175 35.3223 35.0826C35.0795 35.2477 34.7936 35.3379 34.5 35.342Z" fill="white"/>
</svg>
