<svg width="80" height="37" viewBox="0 0 80 37" fill="none" xmlns="http://www.w3.org/2000/svg">
<path d="M0.744 26.2622L6.36 10.3742H10.32L4.704 26.2622H0.744ZM12.2865 26.2622V10.8062H15.5985L22.1745 20.0462V10.8062H26.0625V26.2622H22.7265L16.1505 17.0462V26.2622H12.2865ZM28.0253 26.2622L33.6413 10.3742H37.6013L31.9853 26.2622H28.0253ZM43.1438 26.2622V13.7822H38.6078V10.8062H51.5438V13.7822H47.0078V26.2622H43.1438ZM57.5813 26.2622V13.7822H53.0453V10.8062H65.9813V13.7822H61.4453V26.2622H57.5813ZM72.1674 26.5022C71.1434 26.5022 70.1834 26.4222 69.2874 26.2622C68.4074 26.1182 67.6474 25.9022 67.0074 25.6142V22.3262C67.7114 22.6302 68.4874 22.8782 69.3354 23.0702C70.1994 23.2622 71.0154 23.3582 71.7834 23.3582C72.7434 23.3582 73.4554 23.2702 73.9194 23.0942C74.3994 22.9182 74.6394 22.5342 74.6394 21.9422C74.6394 21.5422 74.5194 21.2222 74.2794 20.9822C74.0554 20.7422 73.6794 20.5342 73.1514 20.3582C72.6394 20.1662 71.9354 19.9422 71.0394 19.6862C69.9834 19.3662 69.1434 19.0142 68.5194 18.6302C67.8954 18.2302 67.4474 17.7502 67.1754 17.1902C66.9034 16.6302 66.7674 15.9422 66.7674 15.1262C66.7674 13.6542 67.2954 12.5262 68.3514 11.7422C69.4074 10.9582 70.9674 10.5662 73.0314 10.5662C73.9274 10.5662 74.7994 10.6382 75.6474 10.7822C76.4954 10.9102 77.1834 11.0622 77.7114 11.2382V14.5502C77.0234 14.2782 76.3274 14.0782 75.6234 13.9502C74.9354 13.8222 74.2634 13.7582 73.6074 13.7582C72.7434 13.7582 72.0394 13.8382 71.4954 13.9982C70.9674 14.1582 70.7034 14.5262 70.7034 15.1022C70.7034 15.4382 70.7994 15.7102 70.9914 15.9182C71.1834 16.1102 71.5114 16.2862 71.9754 16.4462C72.4554 16.6062 73.1034 16.7982 73.9194 17.0222C75.1834 17.3582 76.1514 17.7662 76.8234 18.2462C77.4954 18.7102 77.9594 19.2542 78.2154 19.8782C78.4714 20.4862 78.5994 21.1742 78.5994 21.9422C78.5994 23.3022 78.0714 24.4062 77.0154 25.2542C75.9594 26.0862 74.3434 26.5022 72.1674 26.5022Z" fill="white"/>
<mask id="mask0_543_232" style="mask-type:alpha" maskUnits="userSpaceOnUse" x="0" y="10" width="79" height="17">
<path d="M0.744 26.2622L6.36 10.3742H10.32L4.704 26.2622H0.744ZM12.2865 26.2622V10.8062H15.5985L22.1745 20.0462V10.8062H26.0625V26.2622H22.7265L16.1505 17.0462V26.2622H12.2865ZM28.0253 26.2622L33.6413 10.3742H37.6013L31.9853 26.2622H28.0253ZM43.1438 26.2622V13.7822H38.6078V10.8062H51.5438V13.7822H47.0078V26.2622H43.1438ZM57.5813 26.2622V13.7822H53.0453V10.8062H65.9813V13.7822H61.4453V26.2622H57.5813ZM72.1674 26.5022C71.1434 26.5022 70.1834 26.4222 69.2874 26.2622C68.4074 26.1182 67.6474 25.9022 67.0074 25.6142V22.3262C67.7114 22.6302 68.4874 22.8782 69.3354 23.0702C70.1994 23.2622 71.0154 23.3582 71.7834 23.3582C72.7434 23.3582 73.4554 23.2702 73.9194 23.0942C74.3994 22.9182 74.6394 22.5342 74.6394 21.9422C74.6394 21.5422 74.5194 21.2222 74.2794 20.9822C74.0554 20.7422 73.6794 20.5342 73.1514 20.3582C72.6394 20.1662 71.9354 19.9422 71.0394 19.6862C69.9834 19.3662 69.1434 19.0142 68.5194 18.6302C67.8954 18.2302 67.4474 17.7502 67.1754 17.1902C66.9034 16.6302 66.7674 15.9422 66.7674 15.1262C66.7674 13.6542 67.2954 12.5262 68.3514 11.7422C69.4074 10.9582 70.9674 10.5662 73.0314 10.5662C73.9274 10.5662 74.7994 10.6382 75.6474 10.7822C76.4954 10.9102 77.1834 11.0622 77.7114 11.2382V14.5502C77.0234 14.2782 76.3274 14.0782 75.6234 13.9502C74.9354 13.8222 74.2634 13.7582 73.6074 13.7582C72.7434 13.7582 72.0394 13.8382 71.4954 13.9982C70.9674 14.1582 70.7034 14.5262 70.7034 15.1022C70.7034 15.4382 70.7994 15.7102 70.9914 15.9182C71.1834 16.1102 71.5114 16.2862 71.9754 16.4462C72.4554 16.6062 73.1034 16.7982 73.9194 17.0222C75.1834 17.3582 76.1514 17.7662 76.8234 18.2462C77.4954 18.7102 77.9594 19.2542 78.2154 19.8782C78.4714 20.4862 78.5994 21.1742 78.5994 21.9422C78.5994 23.3022 78.0714 24.4062 77.0154 25.2542C75.9594 26.0862 74.3434 26.5022 72.1674 26.5022Z" fill="white"/>
</mask>
<g mask="url(#mask0_543_232)">
<path d="M80 32.6299C80 51.612 62.0914 67 40 67C17.9086 67 0 51.612 0 32.6299C0 13.6478 17.9086 8 40 8C62.0914 8 80 13.6478 80 32.6299Z" fill="url(#paint0_linear_543_232)"/>
<path d="M80 37.2124C80 55.8728 61.8675 71 39.5 71C17.1325 71 -1 55.8728 -1 37.2124C-1 18.552 17.1325 13 39.5 13C61.8675 13 80 18.552 80 37.2124Z" fill="url(#paint1_linear_543_232)"/>
<path d="M81 42.2124C81 60.8728 62.8675 76 40.5 76C18.1325 76 0 60.8728 0 42.2124C0 23.552 18.1325 18 40.5 18C62.8675 18 81 23.552 81 42.2124Z" fill="url(#paint2_linear_543_232)"/>
<path d="M81 46.6299C81 65.612 62.8675 81 40.5 81C18.1325 81 0 65.612 0 46.6299C0 27.6478 18.1325 22 40.5 22C62.8675 22 81 27.6478 81 46.6299Z" fill="url(#paint3_linear_543_232)"/>
</g>
<defs>
<linearGradient id="paint0_linear_543_232" x1="38.1247" y1="7.71642" x2="38.0126" y2="35.304" gradientUnits="userSpaceOnUse">
<stop stop-color="#BBE7FF"/>
<stop offset="1" stop-color="#0F00B6" stop-opacity="0"/>
</linearGradient>
<linearGradient id="paint1_linear_543_232" x1="37.6012" y1="12.7212" x2="37.4942" y2="39.8412" gradientUnits="userSpaceOnUse">
<stop stop-color="#7BCFFF"/>
<stop offset="1" stop-color="#0F00B6" stop-opacity="0"/>
</linearGradient>
<linearGradient id="paint2_linear_543_232" x1="38.6012" y1="17.7212" x2="38.4942" y2="44.8412" gradientUnits="userSpaceOnUse">
<stop stop-color="#2D9AFF"/>
<stop offset="1" stop-color="#0F00B6" stop-opacity="0"/>
</linearGradient>
<linearGradient id="paint3_linear_543_232" x1="38.6012" y1="21.7164" x2="38.4905" y2="49.304" gradientUnits="userSpaceOnUse">
<stop stop-color="#0066FE"/>
<stop offset="1" stop-color="#0F00B6" stop-opacity="0"/>
</linearGradient>
</defs>
</svg>
