<svg width="54" height="55" viewBox="0 0 54 55" fill="none" xmlns="http://www.w3.org/2000/svg">
<path d="M27 0.344604C12.096 0.344604 0 12.4406 0 27.3446C0 42.2486 12.096 54.3446 27 54.3446C41.904 54.3446 54 42.2486 54 27.3446C54 12.4406 41.904 0.344604 27 0.344604ZM12.825 33.1226C12.825 34.2296 11.907 35.1476 10.8 35.1476C9.693 35.1476 8.775 34.2296 8.775 33.1226V21.5666C8.775 20.4596 9.693 19.5416 10.8 19.5416C11.907 19.5416 12.825 20.4596 12.825 21.5666V33.1226ZM20.925 36.9836C20.925 38.0906 20.007 39.0086 18.9 39.0086C17.793 39.0086 16.875 38.0906 16.875 36.9836V17.7056C16.875 16.5986 17.793 15.6806 18.9 15.6806C20.007 15.6806 20.925 16.5986 20.925 17.7056V36.9836ZM29.025 40.8446C29.025 41.9516 28.107 42.8696 27 42.8696C25.893 42.8696 24.975 41.9516 24.975 40.8446V13.8446C24.975 12.7376 25.893 11.8196 27 11.8196C28.107 11.8196 29.025 12.7376 29.025 13.8446V40.8446ZM37.125 36.9836C37.125 38.0906 36.207 39.0086 35.1 39.0086C33.993 39.0086 33.075 38.0906 33.075 36.9836V17.7056C33.075 16.5986 33.993 15.6806 35.1 15.6806C36.207 15.6806 37.125 16.5986 37.125 17.7056V36.9836ZM45.225 33.1226C45.225 34.2296 44.307 35.1476 43.2 35.1476C42.093 35.1476 41.175 34.2296 41.175 33.1226V21.5666C41.175 20.4596 42.093 19.5416 43.2 19.5416C44.307 19.5416 45.225 20.4596 45.225 21.5666V33.1226Z" fill="white"/>
</svg>
